<?xml version="1.0" encoding="utf-8"?>
<!-- Generator: Adobe Illustrator 25.4.1, SVG Export Plug-In . SVG Version: 6.00 Build 0)  -->
<svg version="1.1" id="Layer_1" xmlns="http://www.w3.org/2000/svg" xmlns:xlink="http://www.w3.org/1999/xlink" x="0px" y="0px"
	 viewBox="0 0 1170 636.46" style="enable-background:new 0 0 1170 636.46;" xml:space="preserve">
<style type="text/css">
	.st0{fill:#FFFFFF;}
</style>
<g id="background">
</g>
<g id="Logo">
	<path class="st0" d="M466.35,319.71c-18.78-18.77-43.74-29.11-70.29-29.11c-26.55,0-51.51,10.34-70.29,29.11
		C307,338.49,296.66,363.45,296.66,390c0,18.13,4.83,35.53,13.87,50.71c3.67-1.31,7.78-2.35,12.41-2.99
		c8.05-1.11,17.23-0.7,27.65,2.71c-13.79-12.44-22.47-30.44-22.47-50.43c0-37.47,30.48-67.95,67.95-67.95s67.95,30.48,67.95,67.95
		s-30.48,67.95-67.95,67.95c-9.84,0-19.19-2.13-27.64-5.92c-18.61-8.97-32.6-7.71-44.3-3.57c-31.45,11.12-33.1,37.47-33.1,37.47
		c25.45-28.06,59.11-7.6,59.11-7.6l0.08-0.1c13.99,7.29,29.62,11.17,45.85,11.17c26.55,0,51.51-10.34,70.29-29.11
		c18.77-18.78,29.11-43.74,29.11-70.29S485.13,338.49,466.35,319.71z"/>
	<path class="st0" d="M455.03,374.02c0,0.69-0.31,1.51-1.18,1.73l-33.22,8.38l-23.74-13.27c-0.46-0.26-1.17-0.08-1.5,0.42
		c-0.38,0.58-0.01,1.37,0.45,1.63l21.54,12.04l-17.27,4.36c-2.65,0.67-5.43,0.67-8.08,0l-53.75-13.56
		c-0.87-0.22-1.18-1.04-1.18-1.73s0.31-1.51,1.18-1.73l53.75-13.56c1.33-0.33,2.69-0.5,4.04-0.5c1.36,0,2.72,0.17,4.04,0.5
		l53.75,13.56C454.72,372.5,455.03,373.32,455.03,374.02z M420.48,387.5v9.39c1.79,3.36,3.02,7.55,3.43,12.2
		c-1.46,0.83-3.02,1.28-4.65,1.28s-3.19-0.46-4.65-1.28c0.4-4.64,1.63-8.84,3.43-12.2v-8.78l-17.36,4.38
		c-1.51,0.38-3.06,0.57-4.61,0.57c-1.54,0-3.09-0.19-4.61-0.57l-32.06-8.09v26.29c0,6.35,15.74,16.14,36.66,16.14
		s36.66-9.79,36.66-16.14V384.4L420.48,387.5z"/>
	<g>
		<g>
			<path class="st0" d="M565.67,397.56H543.4v18.77h26.36v11.87H529.1v-70.81h40.56v11.91H543.4v16.73h22.27L565.67,397.56
				L565.67,397.56z"/>
			<path class="st0" d="M583.15,428.19v-70.81h18.72c8.27,0,14.86,2.63,19.77,7.88c4.91,5.25,7.42,12.45,7.51,21.59v11.48
				c0,9.31-2.46,16.61-7.37,21.91c-4.91,5.3-11.68,7.95-20.3,7.95L583.15,428.19L583.15,428.19z M597.45,369.3v47.03h4.28
				c4.77,0,8.12-1.26,10.07-3.77c1.95-2.51,2.97-6.85,3.06-13.01v-12.3c0-6.61-0.92-11.23-2.77-13.84
				c-1.85-2.61-4.99-3.98-9.43-4.11L597.45,369.3L597.45,369.3z"/>
			<path class="st0" d="M685.87,357.39v49.02c-0.06,7.36-2.09,12.99-6.08,16.9s-9.71,5.86-17.17,5.86c-7.59,0-13.38-1.98-17.38-5.93
				c-4-3.96-6.01-9.68-6.01-17.17v-48.68h14.39v48.73c0,4.02,0.65,6.89,1.95,8.61c1.3,1.72,3.65,2.58,7.05,2.58s5.74-0.85,7-2.55
				c1.26-1.7,1.91-4.5,1.95-8.39V357.4L685.87,357.39L685.87,357.39z"/>
			<path class="st0" d="M715.39,416.33h25.09v11.87h-39.39v-70.81h14.3V416.33z"/>
			<path class="st0" d="M785.86,413.7h-19.5l-3.79,14.49h-15.12l22.13-70.81h13.08l22.27,70.81h-15.27L785.86,413.7z M769.48,401.79
				h13.23l-6.61-25.24L769.48,401.79z"/>
			<path class="st0" d="M863.44,428.19h-14.3l-20.91-46.44v46.44h-14.3v-70.81h14.3l20.96,46.49v-46.49h14.25L863.44,428.19
				L863.44,428.19z"/>
			<path class="st0" d="M911.88,397.56h-22.27v18.77h26.36v11.87h-40.66v-70.81h40.56v11.91h-26.26v16.73h22.27V397.56z"/>
		</g>
	</g>
	<g>
		<path class="st0" d="M529.14,339.73v-2.78l2.74-0.3c0.61-0.09,0.7-0.22,0.7-0.87v-23.53c0-0.65-0.09-0.83-0.7-0.87l-2.74-0.3
			v-2.83h12.83v2.83l-3.61,0.35c-0.65,0.04-0.7,0.22-0.7,0.83v23.8h9.74c0.48,0,0.61-0.04,0.7-0.48l0.7-4.13h3.65v8.31h-23.31
			V339.73z"/>
		<path class="st0" d="M570.12,339.73l-0.44-2.57l-0.13-0.04c-1.91,1.83-4.26,3.13-7.66,3.13c-5.48,0-6.22-3.74-6.22-6.18
			c0-4.35,2.7-6.44,8-6.87l5.52-0.44v-2.22c0-2.74-0.48-4.22-3.83-4.22c-2.39,0-4,0.17-4,3.18l-4.7-0.44c0-5.57,5.09-6.26,8.79-6.26
			c6.31,0,8.66,1.78,8.66,7.79v11.18c0,0.7,0.04,0.78,0.7,0.87l2.13,0.3v2.78h-6.82V339.73z M569.21,329.94l-4.13,0.35
			c-3.26,0.3-4.26,1.22-4.26,3.31s1,2.78,2.78,2.78c2.13,0,4.31-1.31,5.61-2.61V329.94z"/>
		<path class="st0" d="M593.18,339.73v-2.74l2.17-0.26c0.61-0.09,0.7-0.35,0.7-0.87v-10.09c0-2.61-0.3-4.79-3.09-4.79
			c-2.22,0-4.52,1.22-5.96,2.26v12.53c0,0.7,0.04,0.78,0.7,0.87l2.31,0.3v2.78h-10.79v-2.83l2.09-0.26c0.61-0.09,0.7-0.22,0.7-0.87
			v-14.01c0-0.48-0.13-0.78-0.57-0.91l-2.39-0.83l0.44-2.78h6.44l0.35,2.39l0.17,0.04c2.44-1.65,5-2.87,8.13-2.87
			c4.7,0,6.48,2.96,6.48,7.96v11.01c0,0.7,0.04,0.78,0.7,0.87l2.39,0.3v2.78h-10.97V339.73z"/>
		<path class="st0" d="M624.55,320.68c0.87,1.13,1.65,2.48,1.65,4.48c0,5.05-4,7.83-9.09,7.83c-1.44,0-2.83-0.13-3.65-0.39l-2,3.31
			l5.35,0.26c7.74,0.39,11.44,0.78,11.44,6.05c0,4.61-4,7.31-11.57,7.31c-7.66,0-10.4-2.04-10.4-5.35c0-2.09,1.17-3.35,2.65-4.74
			c-1.44-0.61-2-1.65-2-2.7c0-0.91,0.35-1.65,1.09-2.48c0.7-0.78,1.61-1.87,2.39-2.7c-2-1.09-3.39-3.35-3.39-6.4
			c0-4.83,3.39-8.35,9.61-8.35c1.57,0,3.18,0.17,4.09,0.44h7.92v3.18L624.55,320.68z M612.37,340.34c-0.78,0.83-1.65,1.91-1.65,3.04
			c0,2,2.3,2.65,6.09,2.65c2.22,0,6.44-0.35,6.44-3.13c0-1.91-1.65-2-4.18-2.18L612.37,340.34z M616.89,320.33
			c-2.91,0-5.05,1.48-5.05,4.74c0,2.48,1.35,4.35,4.92,4.35c3,0,5-1.74,5-4.44C621.76,321.98,619.93,320.33,616.89,320.33z"/>
		<path class="st0" d="M644.39,339.73l-0.44-2.57l-0.13-0.04c-1.91,1.83-4.26,3.13-7.66,3.13c-5.48,0-6.22-3.74-6.22-6.18
			c0-4.35,2.7-6.44,8-6.87l5.52-0.44v-2.22c0-2.74-0.48-4.22-3.83-4.22c-2.39,0-4,0.17-4,3.18l-4.7-0.44c0-5.57,5.09-6.26,8.79-6.26
			c6.31,0,8.66,1.78,8.66,7.79v11.18c0,0.7,0.04,0.78,0.7,0.87l2.13,0.3v2.78h-6.82V339.73z M643.47,329.94l-4.13,0.35
			c-3.26,0.3-4.26,1.22-4.26,3.31s1,2.78,2.78,2.78c2.13,0,4.31-1.31,5.61-2.61V329.94z"/>
		<path class="st0" d="M653.48,339.73v-2.83l2.09-0.26c0.61-0.09,0.7-0.22,0.7-0.87v-14.01c0-0.48-0.13-0.74-0.57-0.91l-2.39-0.83
			l0.44-2.78h6.48l0.48,3.18l0.13,0.04c1.44-1.87,3.48-3.65,6.4-3.65c1,0,2.61,0.17,3.39,0.39v7.13l-3.91-0.17l-0.52-2.7
			c-0.04-0.39-0.13-0.48-0.52-0.48c-1.65,0-3.52,1.44-4.39,2.26v12.49c0,0.7,0.09,0.83,0.74,0.87l4.09,0.35v2.78H653.48z"/>
		<path class="st0" d="M686.63,339.73l-0.44-2.57l-0.13-0.04c-1.91,1.83-4.26,3.13-7.66,3.13c-5.48,0-6.22-3.74-6.22-6.18
			c0-4.35,2.7-6.44,8-6.87l5.52-0.44v-2.22c0-2.74-0.48-4.22-3.83-4.22c-2.39,0-4,0.17-4,3.18l-4.7-0.44c0-5.57,5.09-6.26,8.79-6.26
			c6.31,0,8.66,1.78,8.66,7.79v11.18c0,0.7,0.04,0.78,0.7,0.87l2.13,0.3v2.78h-6.82V339.73z M685.72,329.94l-4.13,0.35
			c-3.26,0.3-4.26,1.22-4.26,3.31s1,2.78,2.78,2.78c2.13,0,4.31-1.31,5.61-2.61V329.94z"/>
		<path class="st0" d="M699.6,340.25c-2.13,0-3.22-1-3.22-3c0-1.96,1.09-3,3.22-3c2.09,0,3.18,1.04,3.18,3
			C702.77,339.21,701.68,340.25,699.6,340.25z"/>
	</g>
	<g>
		<g>
			<g>
				<g>
					<path class="st0" d="M532.15,462.78v-1.42l2.15-0.16c0.31-0.02,0.36-0.11,0.36-0.44v-4.11l-4.42-7.9
						c-0.13-0.24-0.27-0.31-0.53-0.38l-1-0.24l0.22-1.42h5.62v1.42l-1.69,0.2l3.15,6.06h0.11l3.17-6.06l-1.66-0.2l0.22-1.42h5.02
						v1.42l-0.93,0.24c-0.24,0.07-0.44,0.16-0.56,0.42l-4.13,7.81v4.13c0,0.36,0.02,0.4,0.36,0.45l2.29,0.18v1.42L532.15,462.78
						L532.15,462.78z"/>
					<path class="st0" d="M550.79,454.69c0-4.71,2.66-8.28,7.81-8.28s7.39,3.57,7.39,8.04c0,5.22-2.53,8.59-7.7,8.59
						C553.06,463.04,550.79,459.58,550.79,454.69z M563.33,454.65c0-4.09-1.82-6.08-4.75-6.08c-3,0-5.11,2.02-5.11,6.1
						c0,4.28,1.93,6.21,4.91,6.21C561.32,460.89,563.33,459.05,563.33,454.65z"/>
					<path class="st0" d="M587.17,448.72c0-0.33-0.04-0.42-0.36-0.44l-1.4-0.16v-1.42h5.93v1.42l-1.49,0.18
						c-0.33,0.05-0.36,0.09-0.36,0.42v8.52c0,4-2.24,5.79-6.08,5.79c-4.24,0-5.97-1.95-5.97-5.86v-8.46c0-0.33-0.04-0.42-0.36-0.44
						l-1.4-0.16v-1.42h6.19v1.42l-1.49,0.18c-0.33,0.05-0.36,0.09-0.36,0.42v8.08c0,2.82,0.98,4.08,3.51,4.08
						c2.51,0,3.62-1.04,3.62-4.02v-8.13H587.17z"/>
					<path class="st0" d="M608.99,462.78v-1.4l1.46-0.2l-1.66-4.2c-0.27-0.69-0.62-0.95-1.38-0.95h-1.89v4.71
						c0,0.36,0.02,0.4,0.36,0.45l1.42,0.18v1.42h-6.1v-1.42l1.4-0.16c0.31-0.05,0.36-0.11,0.36-0.44v-12.01
						c0-0.33-0.04-0.42-0.36-0.44l-1.4-0.16v-1.44h7.1c4,0,5.06,2.17,5.06,4.4c0,2.33-1.24,3.6-3,4.28
						c0.69,0.33,0.91,0.87,1.33,1.93l1.33,3.4c0.18,0.33,0.33,0.38,0.67,0.42l1.35,0.22v1.42L608.99,462.78L608.99,462.78z
						 M607.17,454.14c1.89,0,3.51-0.51,3.51-2.93c0-2.04-1.24-2.57-3.66-2.57h-1.49v5.5H607.17z"/>
					<path class="st0" d="M645.6,462.78v-1.42l1.82-0.2l-1.02-3h-5.93l-1.02,3l1.78,0.2v1.42h-5.55v-1.4l0.95-0.24
						c0.27-0.07,0.47-0.16,0.55-0.42l4.88-14.01h3.13l4.91,14.05c0.09,0.27,0.27,0.31,0.53,0.38l1.02,0.24v1.4L645.6,462.78
						L645.6,462.78z M643.49,449.17h-0.07l-2.38,7.04h4.79L643.49,449.17z"/>
					<path class="st0" d="M673.08,461.84c-1.24,0.8-3.4,1.2-5.42,1.2c-5.46,0-7.68-3.35-7.68-8.39c0-4.73,2.69-8.24,8.1-8.24
						c1.91,0,3.8,0.47,4.95,1.22v3.89l-1.89-0.13l-0.38-2.15c-0.02-0.2-0.09-0.31-0.31-0.38c-0.69-0.22-1.55-0.4-2.49-0.4
						c-3.22,0-5.28,2.13-5.28,6.19c0,4.24,1.95,6.37,5.13,6.37c0.91,0,2.02-0.09,2.75-0.38c0.22-0.07,0.31-0.13,0.36-0.42l0.36-2.04
						h1.8L673.08,461.84L673.08,461.84z"/>
					<path class="st0" d="M692.08,462.78v-1.42l1.82-0.2l-1.02-3h-5.93l-1.02,3l1.78,0.2v1.42h-5.55v-1.4l0.95-0.24
						c0.27-0.07,0.47-0.16,0.55-0.42l4.88-14.01h3.13l4.91,14.05c0.09,0.27,0.27,0.31,0.53,0.38l1.02,0.24v1.4L692.08,462.78
						L692.08,462.78z M689.97,449.17h-0.07l-2.38,7.04h4.79L689.97,449.17z"/>
					<path class="st0" d="M707.26,462.78v-1.42l1.4-0.16c0.31-0.05,0.36-0.11,0.36-0.44v-12.01c0-0.33-0.04-0.42-0.36-0.44
						l-1.4-0.16v-1.44h6.86c5.57,0,7.97,3,7.97,7.79c0,4.93-2.6,8.28-8.35,8.28L707.26,462.78L707.26,462.78z M713.59,460.84
						c4.11,0,5.84-2.35,5.84-6.1c0-4.6-1.95-6.1-5.71-6.1h-2.11v12.21L713.59,460.84L713.59,460.84z"/>
					<path class="st0" d="M731.99,462.78v-1.42l1.4-0.16c0.31-0.05,0.36-0.11,0.36-0.44v-12.01c0-0.33-0.04-0.42-0.36-0.44
						l-1.4-0.16v-1.44h11.41v4l-1.89-0.09l-0.31-1.71c-0.04-0.22-0.13-0.29-0.38-0.29h-4.48v5.1h5.64v1.93h-5.64v5.24h4.97
						c0.24,0,0.31-0.02,0.36-0.24l0.36-1.95h1.86v4.09L731.99,462.78L731.99,462.78z"/>
					<path class="st0" d="M766.42,462.78v-1.42l1.84-0.16c0.31-0.02,0.36-0.11,0.36-0.44v-10.1h-0.07l-3.86,8.57h-2.89l-3.89-8.68
						h-0.04v10.19c0,0.36,0.02,0.42,0.36,0.45l1.91,0.18v1.42h-6.26v-1.42l1.4-0.16c0.31-0.02,0.36-0.11,0.36-0.44v-12.01
						c0-0.33-0.04-0.42-0.36-0.44l-1.4-0.16v-1.44h4.99l4.55,10.39h0.07l4.62-10.39h4.77v1.42l-1.49,0.18
						c-0.33,0.05-0.36,0.09-0.36,0.42v12.03c0,0.29,0.07,0.4,0.36,0.42l1.49,0.18v1.42h-6.46V462.78z"/>
					<path class="st0" d="M782.91,462.78v-1.42l1.62-0.16c0.31-0.02,0.36-0.11,0.36-0.44v-12.03c0-0.33-0.04-0.42-0.36-0.44
						l-1.62-0.16v-1.42h6.64v1.42l-1.71,0.18c-0.33,0.05-0.36,0.09-0.36,0.42v12.01c0,0.36,0.02,0.4,0.36,0.45l1.71,0.18v1.42h-6.64
						V462.78z"/>
					<path class="st0" d="M812.43,461.84c-1.24,0.8-3.4,1.2-5.42,1.2c-5.46,0-7.68-3.35-7.68-8.39c0-4.73,2.69-8.24,8.1-8.24
						c1.91,0,3.8,0.47,4.95,1.22v3.89l-1.89-0.13l-0.38-2.15c-0.02-0.2-0.09-0.31-0.31-0.38c-0.69-0.22-1.55-0.4-2.49-0.4
						c-3.22,0-5.28,2.13-5.28,6.19c0,4.24,1.95,6.37,5.13,6.37c0.91,0,2.02-0.09,2.75-0.38c0.22-0.07,0.31-0.13,0.36-0.42l0.36-2.04
						h1.8L812.43,461.84L812.43,461.84z"/>
					<path class="st0" d="M835.12,462.78v-1.42l1.4-0.16c0.31-0.05,0.36-0.11,0.36-0.44v-12.01c0-0.33-0.04-0.42-0.36-0.44
						l-1.4-0.16v-1.44h7.13c4.11,0,5.35,2.17,5.35,4.73c0,3.84-2.33,5.33-6.08,5.33h-2.07v3.97c0,0.36,0.02,0.4,0.36,0.45l3.17,0.18
						v1.42L835.12,462.78L835.12,462.78z M841.2,454.85c1.93,0,3.71-0.42,3.71-3.28c0-2.26-1.29-2.93-3.46-2.93h-2v6.21H841.2z"/>
					<path class="st0" d="M864.27,462.78v-1.42l1.82-0.2l-1.02-3h-5.93l-1.02,3l1.78,0.2v1.42h-5.55v-1.4l0.95-0.24
						c0.27-0.07,0.47-0.16,0.55-0.42l4.88-14.01h3.13l4.91,14.05c0.09,0.27,0.27,0.31,0.53,0.38l1.02,0.24v1.4L864.27,462.78
						L864.27,462.78z M862.16,449.17h-0.07l-2.38,7.04h4.79L862.16,449.17z"/>
					<path class="st0" d="M879.92,462.78v-1.44l2.29-0.16c0.31-0.02,0.36-0.11,0.36-0.45v-12.12h-2.97c-0.24,0-0.31,0.02-0.36,0.24
						l-0.36,1.93h-1.86v-4.08h13.7v4.08h-1.84l-0.36-1.93c-0.04-0.22-0.11-0.24-0.36-0.24h-3v12.12c0,0.31,0.02,0.4,0.36,0.42
						l2.44,0.18v1.44h-8.04V462.78z"/>
					<path class="st0" d="M909.86,462.78v-1.42l1.4-0.16c0.31-0.05,0.36-0.11,0.36-0.44v-5.28h-7.01v5.26c0,0.36,0.02,0.4,0.36,0.45
						l1.49,0.18v1.42h-6.19v-1.42l1.4-0.16c0.31-0.05,0.36-0.11,0.36-0.44v-12.03c0-0.33-0.04-0.42-0.36-0.44l-1.4-0.16v-1.42h6.19
						v1.42l-1.49,0.18c-0.33,0.05-0.36,0.09-0.36,0.42v4.8h7.01v-4.8c0-0.33-0.04-0.42-0.36-0.44l-1.4-0.16v-1.42h6.1v1.42
						l-1.4,0.18c-0.33,0.05-0.36,0.09-0.36,0.42v12.01c0,0.36,0.02,0.4,0.36,0.45l1.4,0.18v1.42h-6.1V462.78z"/>
				</g>
			</g>
		</g>
	</g>
</g>
</svg>
