<svg version="1.2" baseProfile="tiny-ps" xmlns="http://www.w3.org/2000/svg" viewBox="0 0 652 216" width="652" height="216">
	<title>edulane_horizontal_white -svg</title>
	<style>
		tspan { white-space:pre }
		.shp0 { fill: #ffffff } 
	</style>
	<g id="background">
	</g>
	<g id="Logo">
		<path id="Layer" class="shp0" d="M214.47 106C214.47 132.55 204.13 157.51 185.36 176.29C166.58 195.06 141.62 205.4 115.07 205.4C98.84 205.4 83.21 201.52 69.22 194.23L69.14 194.33C69.14 194.33 35.48 173.87 10.03 201.93C10.03 201.93 11.68 175.58 43.13 164.46C54.83 160.32 68.82 159.06 87.43 168.03C95.88 171.82 105.23 173.95 115.07 173.95C152.54 173.95 183.02 143.47 183.02 106C183.02 68.53 152.54 38.05 115.07 38.05C77.6 38.05 47.12 68.53 47.12 106C47.12 125.99 55.8 143.99 69.59 156.43C59.17 153.02 49.99 152.61 41.94 153.72C37.31 154.36 33.2 155.4 29.53 156.71C20.49 141.53 15.66 124.13 15.66 106C15.66 79.45 26 54.49 44.77 35.71C63.55 16.94 88.51 6.6 115.06 6.6C141.61 6.6 166.57 16.94 185.35 35.71C204.13 54.49 214.47 79.45 214.47 106Z" />
		<path id="Layer" fill-rule="evenodd" class="shp0" d="M174.03 90.02C174.03 90.71 173.72 91.53 172.85 91.75L139.63 100.13L115.89 86.86C115.43 86.6 114.72 86.78 114.39 87.28C114.01 87.86 114.38 88.65 114.84 88.91L136.38 100.95L119.11 105.31C116.46 105.98 113.68 105.98 111.03 105.31L57.28 91.75C56.41 91.53 56.1 90.71 56.1 90.02C56.1 89.33 56.41 88.51 57.28 88.29L111.03 74.73C112.36 74.4 113.72 74.23 115.07 74.23C116.43 74.23 117.79 74.4 119.11 74.73L172.86 88.29C173.72 88.5 174.03 89.32 174.03 90.02ZM139.48 103.5L139.48 112.89C141.27 116.25 142.5 120.44 142.91 125.09C141.45 125.92 139.89 126.37 138.26 126.37C136.63 126.37 135.07 125.91 133.61 125.09C134.01 120.45 135.24 116.25 137.04 112.89L137.04 104.11L119.68 108.49C118.17 108.87 116.62 109.06 115.07 109.06C113.53 109.06 111.98 108.87 110.46 108.49L78.4 100.4L78.4 126.69C78.4 133.04 94.14 142.83 115.06 142.83C135.98 142.83 151.72 133.04 151.72 126.69L151.72 100.4L139.48 103.5Z" />
		<g id="Layer">
			<g id="Layer">
				<path id="Layer" class="shp0" d="M284.67 113.56L262.4 113.56L262.4 132.33L288.76 132.33L288.76 144.2L248.1 144.2L248.1 73.39L288.66 73.39L288.66 85.3L262.4 85.3L262.4 102.03L284.67 102.03L284.67 113.56L284.67 113.56Z" />
				<path id="Layer" fill-rule="evenodd" class="shp0" d="M302.15 73.38L320.87 73.38C329.14 73.38 335.73 76.01 340.64 81.26C345.55 86.51 348.06 93.71 348.15 102.85L348.15 114.33C348.15 123.64 345.69 130.94 340.78 136.24C335.87 141.54 329.1 144.19 320.48 144.19L302.15 144.19L302.15 73.38ZM316.45 132.33L320.73 132.33C325.5 132.33 328.85 131.07 330.8 128.56C332.75 126.05 333.77 121.71 333.86 115.55L333.86 103.25C333.86 96.64 332.94 92.02 331.09 89.41C329.24 86.8 326.1 85.43 321.66 85.3L316.45 85.3L316.45 132.33Z" />
				<path id="Layer" class="shp0" d="M404.87 73.39L404.87 122.41C404.81 129.77 402.78 135.4 398.79 139.31C394.8 143.22 389.08 145.17 381.62 145.17C374.03 145.17 368.24 143.19 364.24 139.24C360.24 135.28 358.23 129.56 358.23 122.07L358.23 73.39L372.62 73.39L372.62 122.12C372.62 126.14 373.27 129.01 374.57 130.73C375.87 132.45 378.22 133.31 381.62 133.31C385.02 133.31 387.36 132.46 388.62 130.76C389.88 129.06 390.53 126.26 390.57 122.37L390.57 73.4L404.87 73.39L404.87 73.39Z" />
				<path id="Layer" class="shp0" d="M434.39 132.33L459.48 132.33L459.48 144.2L420.09 144.2L420.09 73.39L434.39 73.39L434.39 132.33Z" />
				<path id="Layer" fill-rule="evenodd" class="shp0" d="M504.86 129.7L485.36 129.7L481.57 144.19L466.45 144.19L488.58 73.38L501.66 73.38L523.93 144.19L508.66 144.19L504.86 129.7ZM488.48 117.79L501.71 117.79L495.1 92.55L488.48 117.79Z" />
				<path id="Layer" class="shp0" d="M582.44 144.19L568.14 144.19L547.23 97.75L547.23 144.19L532.93 144.19L532.93 73.38L547.23 73.38L568.19 119.87L568.19 73.38L582.44 73.38L582.44 144.19L582.44 144.19Z" />
				<path id="Layer" class="shp0" d="M630.88 113.56L608.61 113.56L608.61 132.33L634.97 132.33L634.97 144.2L594.31 144.2L594.31 73.39L634.87 73.39L634.87 85.3L608.61 85.3L608.61 102.03L630.88 102.03L630.88 113.56L630.88 113.56Z" />
			</g>
		</g>
		<g id="Layer">
			<path id="Layer" class="shp0" d="M248.14 55.73L248.14 52.95L250.88 52.65C251.49 52.56 251.58 52.43 251.58 51.78L251.58 28.25C251.58 27.6 251.49 27.42 250.88 27.38L248.14 27.08L248.14 24.25L260.97 24.25L260.97 27.08L257.36 27.43C256.71 27.47 256.66 27.65 256.66 28.26L256.66 52.06L266.4 52.06C266.88 52.06 267.01 52.02 267.1 51.58L267.8 47.45L271.45 47.45L271.45 55.76L248.14 55.76L248.14 55.73L248.14 55.73Z" />
			<path id="Layer" fill-rule="evenodd" class="shp0" d="M288.68 53.16L288.55 53.12C286.64 54.95 284.29 56.25 280.89 56.25C275.41 56.25 274.67 52.51 274.67 50.07C274.67 45.72 277.37 43.63 282.67 43.2L288.19 42.76L288.19 40.54C288.19 37.8 287.71 36.32 284.36 36.32C281.97 36.32 280.36 36.49 280.36 39.5L275.66 39.06C275.66 33.49 280.75 32.8 284.45 32.8C290.76 32.8 293.11 34.58 293.11 40.59L293.11 51.77C293.11 52.47 293.15 52.55 293.81 52.64L295.94 52.94L295.94 55.72L289.12 55.72L289.12 55.73L288.68 53.16ZM288.21 45.94L284.08 46.29C280.82 46.59 279.82 47.51 279.82 49.6C279.82 51.69 280.82 52.38 282.6 52.38C284.73 52.38 286.91 51.07 288.21 49.77L288.21 45.94Z" />
			<path id="Layer" class="shp0" d="M312.18 55.73L312.18 52.99L314.35 52.73C314.96 52.64 315.05 52.38 315.05 51.86L315.05 41.77C315.05 39.16 314.75 36.98 311.96 36.98C309.74 36.98 307.44 38.2 306 39.24L306 51.77C306 52.47 306.04 52.55 306.7 52.64L309.01 52.94L309.01 55.72L298.22 55.72L298.22 52.89L300.31 52.63C300.92 52.54 301.01 52.41 301.01 51.76L301.01 37.75C301.01 37.27 300.88 36.97 300.44 36.84L298.05 36.01L298.49 33.23L304.93 33.23L305.28 35.62L305.45 35.66C307.89 34.01 310.45 32.79 313.58 32.79C318.28 32.79 320.06 35.75 320.06 40.75L320.06 51.76C320.06 52.46 320.1 52.54 320.76 52.63L323.15 52.93L323.15 55.71L312.18 55.71L312.18 55.73L312.18 55.73Z" />
			<path id="Layer" fill-rule="evenodd" class="shp0" d="M343.55 36.68C344.42 37.81 345.2 39.16 345.2 41.16C345.2 46.21 341.2 48.99 336.11 48.99C334.67 48.99 333.28 48.86 332.46 48.6L330.46 51.91L335.81 52.17C343.55 52.56 347.25 52.95 347.25 58.22C347.25 62.83 343.25 65.53 335.68 65.53C328.02 65.53 325.28 63.49 325.28 60.18C325.28 58.09 326.45 56.83 327.93 55.44C326.49 54.83 325.93 53.79 325.93 52.74C325.93 51.83 326.28 51.09 327.02 50.26C327.72 49.48 328.63 48.39 329.41 47.56C327.41 46.47 326.02 44.21 326.02 41.16C326.02 36.33 329.41 32.81 335.63 32.81C337.2 32.81 338.81 32.98 339.72 33.25L347.64 33.25L347.64 36.43L343.55 36.68ZM331.37 56.34C330.59 57.17 329.72 58.25 329.72 59.38C329.72 61.38 332.02 62.03 335.81 62.03C338.03 62.03 342.25 61.68 342.25 58.9C342.25 56.99 340.6 56.9 338.07 56.72L331.37 56.34ZM335.89 36.33C332.98 36.33 330.84 37.81 330.84 41.07C330.84 43.55 332.19 45.42 335.76 45.42C338.76 45.42 340.76 43.68 340.76 40.98C340.76 37.98 338.93 36.33 335.89 36.33Z" />
			<path id="Layer" fill-rule="evenodd" class="shp0" d="M362.95 53.16L362.82 53.12C360.91 54.95 358.56 56.25 355.16 56.25C349.68 56.25 348.94 52.51 348.94 50.07C348.94 45.72 351.64 43.63 356.94 43.2L362.46 42.76L362.46 40.54C362.46 37.8 361.98 36.32 358.63 36.32C356.24 36.32 354.63 36.49 354.63 39.5L349.93 39.06C349.93 33.49 355.02 32.8 358.72 32.8C365.03 32.8 367.38 34.58 367.38 40.59L367.38 51.77C367.38 52.47 367.42 52.55 368.08 52.64L370.21 52.94L370.21 55.72L363.39 55.72L363.39 55.73L362.95 53.16ZM362.47 45.94L358.34 46.29C355.08 46.59 354.08 47.51 354.08 49.6C354.08 51.69 355.08 52.38 356.86 52.38C358.99 52.38 361.17 51.07 362.47 49.77L362.47 45.94Z" />
			<path id="Layer" class="shp0" d="M372.48 55.73L372.48 52.9L374.57 52.64C375.18 52.55 375.27 52.42 375.27 51.77L375.27 37.76C375.27 37.28 375.14 37.02 374.7 36.85L372.31 36.02L372.75 33.24L379.23 33.24L379.71 36.42L379.84 36.46C381.28 34.59 383.32 32.81 386.24 32.81C387.24 32.81 388.85 32.98 389.63 33.2L389.63 40.33L385.72 40.16L385.2 37.46C385.16 37.07 385.07 36.98 384.68 36.98C383.03 36.98 381.16 38.42 380.29 39.24L380.29 51.73C380.29 52.43 380.38 52.56 381.03 52.6L385.12 52.95L385.12 55.73L372.48 55.73L372.48 55.73Z" />
			<path id="Layer" fill-rule="evenodd" class="shp0" d="M405.19 53.16L405.06 53.12C403.15 54.95 400.8 56.25 397.4 56.25C391.92 56.25 391.18 52.51 391.18 50.07C391.18 45.72 393.88 43.63 399.18 43.2L404.7 42.76L404.7 40.54C404.7 37.8 404.22 36.32 400.87 36.32C398.48 36.32 396.87 36.49 396.87 39.5L392.17 39.06C392.17 33.49 397.26 32.8 400.96 32.8C407.27 32.8 409.62 34.58 409.62 40.59L409.62 51.77C409.62 52.47 409.66 52.55 410.32 52.64L412.45 52.94L412.45 55.72L405.63 55.72L405.63 55.73L405.19 53.16ZM404.72 45.94L400.59 46.29C397.33 46.59 396.33 47.51 396.33 49.6C396.33 51.69 397.33 52.38 399.11 52.38C401.24 52.38 403.42 51.07 404.72 49.77L404.72 45.94Z" />
			<path id="Layer" class="shp0" d="M418.6 56.25C416.47 56.25 415.38 55.25 415.38 53.25C415.38 51.29 416.47 50.25 418.6 50.25C420.69 50.25 421.78 51.29 421.78 53.25C421.77 55.21 420.68 56.25 418.6 56.25Z" />
		</g>
		<g id="Layer">
			<g id="Layer">
				<g id="Layer">
					<g id="Layer">
						<path id="Layer" class="shp0" d="M251.15 178.78L251.15 177.36L253.3 177.2C253.61 177.18 253.66 177.09 253.66 176.76L253.66 172.65L249.24 164.75C249.11 164.51 248.97 164.44 248.71 164.37L247.71 164.13L247.93 162.71L253.55 162.71L253.55 164.13L251.86 164.33L255.01 170.39L255.12 170.39L258.29 164.33L256.63 164.13L256.85 162.71L261.87 162.71L261.87 164.13L260.94 164.37C260.7 164.44 260.5 164.53 260.38 164.79L256.25 172.6L256.25 176.73C256.25 177.09 256.27 177.13 256.61 177.18L258.9 177.36L258.9 178.78L251.15 178.78L251.15 178.78Z" />
						<path id="Layer" fill-rule="evenodd" class="shp0" d="M269.79 170.69C269.79 165.98 272.45 162.41 277.6 162.41C282.75 162.41 284.99 165.98 284.99 170.45C284.99 175.67 282.46 179.04 277.29 179.04C272.06 179.04 269.79 175.58 269.79 170.69ZM282.33 170.65C282.33 166.56 280.51 164.57 277.58 164.57C274.58 164.57 272.47 166.59 272.47 170.67C272.47 174.95 274.4 176.88 277.38 176.88C280.32 176.89 282.33 175.05 282.33 170.65Z" />
						<path id="Layer" class="shp0" d="M306.17 164.72C306.17 164.39 306.13 164.3 305.81 164.28L304.41 164.12L304.41 162.7L310.34 162.7L310.34 164.12L308.85 164.3C308.52 164.35 308.49 164.39 308.49 164.72L308.49 173.24C308.49 177.24 306.25 179.03 302.41 179.03C298.17 179.03 296.44 177.08 296.44 173.17L296.44 164.71C296.44 164.38 296.4 164.29 296.08 164.27L294.68 164.11L294.68 162.69L300.87 162.69L300.87 164.11L299.38 164.29C299.05 164.34 299.02 164.38 299.02 164.71L299.02 172.79C299.02 175.61 300 176.87 302.53 176.87C305.04 176.87 306.15 175.83 306.15 172.85L306.15 164.72L306.17 164.72Z" />
						<path id="Layer" fill-rule="evenodd" class="shp0" d="M327.99 177.38L329.45 177.18L327.79 172.98C327.52 172.29 327.17 172.03 326.41 172.03L324.52 172.03L324.52 176.74C324.52 177.1 324.54 177.14 324.88 177.19L326.3 177.37L326.3 178.79L320.2 178.79L320.2 177.37L321.6 177.21C321.91 177.16 321.96 177.1 321.96 176.77L321.96 164.76C321.96 164.43 321.92 164.34 321.6 164.32L320.2 164.16L320.2 162.72L327.3 162.72C331.3 162.72 332.36 164.89 332.36 167.12C332.36 169.45 331.12 170.72 329.36 171.4C330.05 171.73 330.27 172.27 330.69 173.33L332.02 176.73C332.2 177.06 332.35 177.11 332.69 177.15L334.04 177.37L334.04 178.79L327.99 178.78L327.99 177.38ZM326.17 170.14C328.06 170.14 329.68 169.63 329.68 167.21C329.68 165.17 328.44 164.64 326.02 164.64L324.53 164.64L324.53 170.14L326.17 170.14Z" />
						<path id="Layer" fill-rule="evenodd" class="shp0" d="M364.6 177.36L366.42 177.16L365.4 174.16L359.47 174.16L358.45 177.16L360.23 177.36L360.23 178.78L354.68 178.78L354.68 177.38L355.63 177.14C355.9 177.07 356.1 176.98 356.18 176.72L361.06 162.71L364.19 162.71L369.1 176.76C369.19 177.03 369.37 177.07 369.63 177.14L370.65 177.38L370.65 178.78L364.6 178.78L364.6 177.36ZM362.49 165.17L362.42 165.17L360.04 172.21L364.83 172.21L362.49 165.17Z" />
						<path id="Layer" class="shp0" d="M392.08 177.84C390.84 178.64 388.68 179.04 386.66 179.04C381.2 179.04 378.98 175.69 378.98 170.65C378.98 165.92 381.67 162.41 387.08 162.41C388.99 162.41 390.88 162.88 392.03 163.63L392.03 167.52L390.14 167.39L389.76 165.24C389.74 165.04 389.67 164.93 389.45 164.86C388.76 164.64 387.9 164.46 386.96 164.46C383.74 164.46 381.68 166.59 381.68 170.65C381.68 174.89 383.63 177.02 386.81 177.02C387.72 177.02 388.83 176.93 389.56 176.64C389.78 176.57 389.87 176.51 389.92 176.22L390.28 174.18L392.08 174.18L392.08 177.84L392.08 177.84Z" />
						<path id="Layer" fill-rule="evenodd" class="shp0" d="M411.08 177.36L412.9 177.16L411.88 174.16L405.95 174.16L404.93 177.16L406.71 177.36L406.71 178.78L401.16 178.78L401.16 177.38L402.11 177.14C402.38 177.07 402.58 176.98 402.66 176.72L407.54 162.71L410.67 162.71L415.58 176.76C415.67 177.03 415.85 177.07 416.11 177.14L417.13 177.38L417.13 178.78L411.08 178.78L411.08 177.36ZM408.97 165.17L408.9 165.17L406.52 172.21L411.31 172.21L408.97 165.17Z" />
						<path id="Layer" fill-rule="evenodd" class="shp0" d="M426.26 177.36L427.66 177.2C427.97 177.15 428.02 177.09 428.02 176.76L428.02 164.75C428.02 164.42 427.98 164.33 427.66 164.31L426.26 164.15L426.26 162.71L433.12 162.71C438.69 162.71 441.09 165.71 441.09 170.5C441.09 175.43 438.49 178.78 432.74 178.78L426.26 178.78L426.26 177.36ZM438.43 170.74C438.43 166.14 436.48 164.64 432.72 164.64L430.61 164.64L430.61 176.85L432.59 176.84C436.7 176.84 438.43 174.49 438.43 170.74Z" />
						<path id="Layer" class="shp0" d="M450.99 178.78L450.99 177.36L452.39 177.2C452.7 177.15 452.75 177.09 452.75 176.76L452.75 164.75C452.75 164.42 452.71 164.33 452.39 164.31L450.99 164.15L450.99 162.71L462.4 162.71L462.4 166.71L460.51 166.62L460.2 164.91C460.16 164.69 460.07 164.62 459.82 164.62L455.34 164.62L455.34 169.72L460.98 169.72L460.98 171.65L455.34 171.65L455.34 176.89L460.31 176.89C460.55 176.89 460.62 176.87 460.67 176.65L461.03 174.7L462.89 174.7L462.89 178.79L450.99 178.78L450.99 178.78Z" />
						<path id="Layer" class="shp0" d="M485.42 178.78L485.42 177.36L487.26 177.2C487.57 177.18 487.62 177.09 487.62 176.76L487.62 166.66L487.55 166.66L483.69 175.23L480.8 175.23L476.91 166.55L476.87 166.55L476.87 176.74C476.87 177.1 476.89 177.16 477.23 177.19L479.14 177.37L479.14 178.79L472.88 178.79L472.88 177.37L474.28 177.21C474.59 177.19 474.64 177.1 474.64 176.77L474.64 164.76C474.64 164.43 474.6 164.34 474.28 164.32L472.88 164.16L472.88 162.72L477.87 162.72L482.42 173.11L482.49 173.11L487.11 162.72L491.88 162.72L491.88 164.14L490.39 164.32C490.06 164.37 490.03 164.41 490.03 164.74L490.03 176.77C490.03 177.06 490.1 177.17 490.39 177.19L491.88 177.37L491.88 178.79L485.42 178.79L485.42 178.78Z" />
						<path id="Layer" class="shp0" d="M501.91 178.78L501.91 177.36L503.53 177.2C503.84 177.18 503.89 177.09 503.89 176.76L503.89 164.73C503.89 164.4 503.85 164.31 503.53 164.29L501.91 164.13L501.91 162.71L508.55 162.71L508.55 164.13L506.84 164.31C506.51 164.36 506.48 164.4 506.48 164.73L506.48 176.74C506.48 177.1 506.5 177.14 506.84 177.19L508.55 177.37L508.55 178.79L501.91 178.79L501.91 178.78Z" />
						<path id="Layer" class="shp0" d="M531.43 177.84C530.19 178.64 528.03 179.04 526.01 179.04C520.55 179.04 518.33 175.69 518.33 170.65C518.33 165.92 521.02 162.41 526.43 162.41C528.34 162.41 530.23 162.88 531.38 163.63L531.38 167.52L529.49 167.39L529.11 165.24C529.09 165.04 529.02 164.93 528.8 164.86C528.11 164.64 527.25 164.46 526.31 164.46C523.09 164.46 521.03 166.59 521.03 170.65C521.03 174.89 522.98 177.02 526.16 177.02C527.07 177.02 528.18 176.93 528.91 176.64C529.13 176.57 529.22 176.51 529.27 176.22L529.63 174.18L531.43 174.18L531.43 177.84L531.43 177.84Z" />
						<path id="Layer" fill-rule="evenodd" class="shp0" d="M554.12 177.36L555.52 177.2C555.83 177.15 555.88 177.09 555.88 176.76L555.88 164.75C555.88 164.42 555.84 164.33 555.52 164.31L554.12 164.15L554.12 162.71L561.25 162.71C565.36 162.71 566.6 164.88 566.6 167.44C566.6 171.28 564.27 172.77 560.52 172.77L558.45 172.77L558.45 176.74C558.45 177.1 558.47 177.14 558.81 177.19L561.98 177.37L561.98 178.79L554.12 178.78L554.12 177.36ZM560.2 170.85C562.13 170.85 563.91 170.43 563.91 167.57C563.91 165.31 562.62 164.64 560.45 164.64L558.45 164.64L558.45 170.85L560.2 170.85Z" />
						<path id="Layer" fill-rule="evenodd" class="shp0" d="M583.27 177.36L585.09 177.16L584.07 174.16L578.14 174.16L577.12 177.16L578.9 177.36L578.9 178.78L573.35 178.78L573.35 177.38L574.3 177.14C574.57 177.07 574.77 176.98 574.85 176.72L579.73 162.71L582.86 162.71L587.77 176.76C587.86 177.03 588.04 177.07 588.3 177.14L589.32 177.38L589.32 178.78L583.27 178.78L583.27 177.36ZM581.16 165.17L581.09 165.17L578.71 172.21L583.5 172.21L581.16 165.17Z" />
						<path id="Layer" class="shp0" d="M598.92 178.78L598.92 177.34L601.21 177.18C601.52 177.16 601.57 177.07 601.57 176.73L601.57 164.61L598.6 164.61C598.36 164.61 598.29 164.63 598.24 164.85L597.88 166.78L596.02 166.78L596.02 162.7L609.72 162.7L609.72 166.78L607.88 166.78L607.52 164.85C607.48 164.63 607.41 164.61 607.16 164.61L604.16 164.61L604.16 176.73C604.16 177.04 604.18 177.13 604.52 177.15L606.96 177.33L606.96 178.77L598.92 178.77L598.92 178.78Z" />
						<path id="Layer" class="shp0" d="M628.86 178.78L628.86 177.36L630.26 177.2C630.57 177.15 630.62 177.09 630.62 176.76L630.62 171.48L623.61 171.48L623.61 176.74C623.61 177.1 623.63 177.14 623.97 177.19L625.46 177.37L625.46 178.79L619.27 178.79L619.27 177.37L620.67 177.21C620.98 177.16 621.03 177.1 621.03 176.77L621.03 164.74C621.03 164.41 620.99 164.32 620.67 164.3L619.27 164.14L619.27 162.72L625.46 162.72L625.46 164.14L623.97 164.32C623.64 164.37 623.61 164.41 623.61 164.74L623.61 169.54L630.62 169.54L630.62 164.74C630.62 164.41 630.58 164.32 630.26 164.3L628.86 164.14L628.86 162.72L634.96 162.72L634.96 164.14L633.56 164.32C633.23 164.37 633.2 164.41 633.2 164.74L633.2 176.75C633.2 177.11 633.22 177.15 633.56 177.2L634.96 177.38L634.96 178.8L628.86 178.8L628.86 178.78Z" />
					</g>
				</g>
			</g>
		</g>
	</g>
</svg>