<svg version="1.2" baseProfile="tiny-ps" xmlns="http://www.w3.org/2000/svg" viewBox="0 0 648 213" width="648" height="213">
	<title>edulane_horizontal_color-svg</title>
	<defs>
		<linearGradient id="grd1" gradientUnits="userSpaceOnUse"  x1="9.023" y1="103" x2="213.468" y2="103">
			<stop offset="0.26" stop-color="#f15523"  />
			<stop offset="0.954" stop-color="#2b3c98"  />
		</linearGradient>
	</defs>
	<style>
		tspan { white-space:pre }
		.shp0 { fill: url(#grd1) } 
		.shp1 { fill: #2b3c98 } 
		.shp2 { fill: #e85e2c } 
		.shp3 { fill: #f15523 } 
		.shp4 { fill: #636567 } 
	</style>
	<g id="background">
	</g>
	<g id="Logo">
		<path id="Layer" class="shp0" d="M213.47 103C213.47 129.55 203.13 154.51 184.36 173.29C165.58 192.06 140.62 202.4 114.07 202.4C97.84 202.4 82.21 198.52 68.22 191.23L68.14 191.33C68.14 191.33 34.48 170.87 9.03 198.93C9.03 198.93 10.68 172.58 42.13 161.46C53.83 157.32 67.82 156.06 86.43 165.03C94.88 168.82 104.23 170.95 114.07 170.95C151.54 170.95 182.02 140.47 182.02 103C182.02 65.53 151.54 35.05 114.07 35.05C76.6 35.05 46.12 65.53 46.12 103C46.12 122.99 54.8 140.99 68.59 153.43C58.17 150.02 48.99 149.61 40.94 150.72C36.31 151.36 32.2 152.4 28.53 153.71C19.49 138.53 14.66 121.13 14.66 103C14.66 76.45 25 51.49 43.77 32.71C62.55 13.94 87.51 3.6 114.06 3.6C140.61 3.6 165.57 13.94 184.35 32.71C203.13 51.49 213.47 76.45 213.47 103Z" />
		<path id="Layer" fill-rule="evenodd" class="shp1" d="M173.03 87.02C173.03 87.71 172.72 88.53 171.85 88.75L138.63 97.13L114.89 83.86C114.43 83.6 113.72 83.78 113.39 84.28C113.01 84.86 113.38 85.65 113.84 85.91L135.38 97.95L118.11 102.31C115.46 102.98 112.68 102.98 110.03 102.31L56.28 88.75C55.41 88.53 55.1 87.71 55.1 87.02C55.1 86.33 55.41 85.51 56.28 85.29L110.03 71.73C111.36 71.4 112.72 71.23 114.07 71.23C115.43 71.23 116.79 71.4 118.11 71.73L171.86 85.29C172.72 85.5 173.03 86.32 173.03 87.02ZM138.48 100.5L138.48 109.89C140.27 113.25 141.5 117.44 141.91 122.09C140.45 122.92 138.89 123.37 137.26 123.37C135.63 123.37 134.07 122.91 132.61 122.09C133.01 117.45 134.24 113.25 136.04 109.89L136.04 101.11L118.68 105.49C117.17 105.87 115.62 106.06 114.07 106.06C112.53 106.06 110.98 105.87 109.46 105.49L77.4 97.4L77.4 123.69C77.4 130.04 93.14 139.83 114.06 139.83C134.98 139.83 150.72 130.04 150.72 123.69L150.72 97.4L138.48 100.5Z" />
		<g id="Layer">
			<g id="Layer">
				<path id="Layer" class="shp1" d="M283.67 110.56L261.4 110.56L261.4 129.33L287.76 129.33L287.76 141.2L247.1 141.2L247.1 70.39L287.66 70.39L287.66 82.3L261.4 82.3L261.4 99.03L283.67 99.03L283.67 110.56Z" />
				<path id="Layer" fill-rule="evenodd" class="shp1" d="M301.15 141.19L301.15 70.38L319.87 70.38C328.14 70.38 334.73 73.01 339.64 78.26C344.55 83.51 347.06 90.71 347.15 99.85L347.15 111.33C347.15 120.64 344.69 127.94 339.78 133.24C334.87 138.54 328.1 141.19 319.48 141.19L301.15 141.19ZM315.45 129.33L319.73 129.33C324.5 129.33 327.85 128.07 329.8 125.56C331.75 123.05 332.77 118.71 332.86 112.55L332.86 100.25C332.86 93.64 331.94 89.02 330.09 86.41C328.24 83.8 325.1 82.43 320.66 82.3L315.45 82.3L315.45 129.33Z" />
				<path id="Layer" class="shp1" d="M403.87 70.39L403.87 119.41C403.81 126.77 401.78 132.4 397.79 136.31C393.8 140.22 388.08 142.17 380.62 142.17C373.03 142.17 367.24 140.19 363.24 136.24C359.24 132.28 357.23 126.56 357.23 119.07L357.23 70.39L371.62 70.39L371.62 119.12C371.62 123.14 372.27 126.01 373.57 127.73C374.87 129.45 377.22 130.31 380.62 130.31C384.02 130.31 386.36 129.46 387.62 127.76C388.88 126.06 389.53 123.26 389.57 119.37L389.57 70.4L403.87 70.4L403.87 70.39Z" />
				<path id="Layer" class="shp2" d="M433.39 129.33L458.48 129.33L458.48 141.2L419.09 141.2L419.09 70.39L433.39 70.39L433.39 129.33Z" />
				<path id="Layer" fill-rule="evenodd" class="shp2" d="M503.86 126.7L484.36 126.7L480.57 141.19L465.45 141.19L487.58 70.38L500.66 70.38L522.93 141.19L507.66 141.19L503.86 126.7ZM487.48 114.79L500.71 114.79L494.1 89.55L487.48 114.79Z" />
				<path id="Layer" class="shp2" d="M581.44 141.19L567.14 141.19L546.23 94.75L546.23 141.19L531.93 141.19L531.93 70.38L546.23 70.38L567.19 116.87L567.19 70.38L581.44 70.38L581.44 141.19L581.44 141.19Z" />
				<path id="Layer" class="shp2" d="M629.88 110.56L607.61 110.56L607.61 129.33L633.97 129.33L633.97 141.2L593.31 141.2L593.31 70.39L633.87 70.39L633.87 82.3L607.61 82.3L607.61 99.03L629.88 99.03L629.88 110.56L629.88 110.56Z" />
			</g>
		</g>
		<g id="Layer">
			<path id="Layer" class="shp3" d="M247.14 52.73L247.14 49.95L249.88 49.65C250.49 49.56 250.58 49.43 250.58 48.78L250.58 25.25C250.58 24.6 250.49 24.42 249.88 24.38L247.14 24.08L247.14 21.25L259.97 21.25L259.97 24.08L256.36 24.43C255.71 24.47 255.66 24.65 255.66 25.26L255.66 49.06L265.4 49.06C265.88 49.06 266.01 49.02 266.1 48.58L266.8 44.45L270.45 44.45L270.45 52.76L247.14 52.76L247.14 52.73Z" />
			<path id="Layer" fill-rule="evenodd" class="shp3" d="M288.12 52.73L287.68 50.16L287.55 50.12C285.64 51.95 283.29 53.25 279.89 53.25C274.41 53.25 273.67 49.51 273.67 47.07C273.67 42.72 276.37 40.63 281.67 40.2L287.19 39.76L287.19 37.54C287.19 34.8 286.71 33.32 283.36 33.32C280.97 33.32 279.36 33.49 279.36 36.5L274.66 36.06C274.66 30.49 279.75 29.8 283.45 29.8C289.76 29.8 292.11 31.58 292.11 37.59L292.11 48.77C292.11 49.47 292.15 49.55 292.81 49.64L294.94 49.94L294.94 52.72L288.12 52.72L288.12 52.73ZM287.21 42.94L283.08 43.29C279.82 43.59 278.82 44.51 278.82 46.6C278.82 48.69 279.82 49.38 281.6 49.38C283.73 49.38 285.91 48.07 287.21 46.77L287.21 42.94Z" />
			<path id="Layer" class="shp3" d="M311.18 52.73L311.18 49.99L313.35 49.73C313.96 49.64 314.05 49.38 314.05 48.86L314.05 38.77C314.05 36.16 313.75 33.98 310.96 33.98C308.74 33.98 306.44 35.2 305 36.24L305 48.77C305 49.47 305.04 49.55 305.7 49.64L308.01 49.94L308.01 52.72L297.22 52.72L297.22 49.89L299.31 49.63C299.92 49.54 300.01 49.41 300.01 48.76L300.01 34.75C300.01 34.27 299.88 33.97 299.44 33.84L297.05 33.01L297.49 30.23L303.93 30.23L304.28 32.62L304.45 32.66C306.89 31.01 309.45 29.79 312.58 29.79C317.28 29.79 319.06 32.75 319.06 37.75L319.06 48.76C319.06 49.46 319.1 49.54 319.76 49.63L322.15 49.93L322.15 52.71L311.18 52.71L311.18 52.73Z" />
			<path id="Layer" fill-rule="evenodd" class="shp3" d="M342.55 33.68C343.42 34.81 344.2 36.16 344.2 38.16C344.2 43.21 340.2 45.99 335.11 45.99C333.67 45.99 332.28 45.86 331.46 45.6L329.46 48.91L334.81 49.17C342.55 49.56 346.25 49.95 346.25 55.22C346.25 59.83 342.25 62.53 334.68 62.53C327.02 62.53 324.28 60.49 324.28 57.18C324.28 55.09 325.45 53.83 326.93 52.44C325.49 51.83 324.93 50.79 324.93 49.74C324.93 48.83 325.28 48.09 326.02 47.26C326.72 46.48 327.63 45.39 328.41 44.56C326.41 43.47 325.02 41.21 325.02 38.16C325.02 33.33 328.41 29.81 334.63 29.81C336.2 29.81 337.81 29.98 338.72 30.25L346.64 30.25L346.64 33.43L342.55 33.68ZM330.37 53.34C329.59 54.17 328.72 55.25 328.72 56.38C328.72 58.38 331.02 59.03 334.81 59.03C337.03 59.03 341.25 58.68 341.25 55.9C341.25 53.99 339.6 53.9 337.07 53.72L330.37 53.34ZM334.89 33.33C331.98 33.33 329.84 34.81 329.84 38.07C329.84 40.55 331.19 42.42 334.76 42.42C337.76 42.42 339.76 40.68 339.76 37.98C339.76 34.98 337.93 33.33 334.89 33.33Z" />
			<path id="Layer" fill-rule="evenodd" class="shp3" d="M362.39 52.73L361.95 50.16L361.82 50.12C359.91 51.95 357.56 53.25 354.16 53.25C348.68 53.25 347.94 49.51 347.94 47.07C347.94 42.72 350.64 40.63 355.94 40.2L361.46 39.76L361.46 37.54C361.46 34.8 360.98 33.32 357.63 33.32C355.24 33.32 353.63 33.49 353.63 36.5L348.93 36.06C348.93 30.49 354.02 29.8 357.72 29.8C364.03 29.8 366.38 31.58 366.38 37.59L366.38 48.77C366.38 49.47 366.42 49.55 367.08 49.64L369.21 49.94L369.21 52.72L362.39 52.72L362.39 52.73ZM361.47 42.94L357.34 43.29C354.08 43.59 353.08 44.51 353.08 46.6C353.08 48.69 354.08 49.38 355.86 49.38C357.99 49.38 360.17 48.07 361.47 46.77L361.47 42.94Z" />
			<path id="Layer" class="shp3" d="M371.48 52.73L371.48 49.9L373.57 49.64C374.18 49.55 374.27 49.42 374.27 48.77L374.27 34.76C374.27 34.28 374.14 34.02 373.7 33.85L371.31 33.02L371.75 30.24L378.23 30.24L378.71 33.42L378.84 33.46C380.28 31.59 382.32 29.81 385.24 29.81C386.24 29.81 387.85 29.98 388.63 30.2L388.63 37.33L384.72 37.16L384.2 34.46C384.16 34.07 384.07 33.98 383.68 33.98C382.03 33.98 380.16 35.42 379.29 36.24L379.29 48.73C379.29 49.43 379.38 49.56 380.03 49.6L384.12 49.95L384.12 52.73L371.48 52.73L371.48 52.73Z" />
			<path id="Layer" fill-rule="evenodd" class="shp3" d="M404.63 52.73L404.19 50.16L404.06 50.12C402.15 51.95 399.8 53.25 396.4 53.25C390.92 53.25 390.18 49.51 390.18 47.07C390.18 42.72 392.88 40.63 398.18 40.2L403.7 39.76L403.7 37.54C403.7 34.8 403.22 33.32 399.87 33.32C397.48 33.32 395.87 33.49 395.87 36.5L391.17 36.06C391.17 30.49 396.26 29.8 399.96 29.8C406.27 29.8 408.62 31.58 408.62 37.59L408.62 48.77C408.62 49.47 408.66 49.55 409.32 49.64L411.45 49.94L411.45 52.72L404.63 52.72L404.63 52.73ZM403.72 42.94L399.59 43.29C396.33 43.59 395.33 44.51 395.33 46.6C395.33 48.69 396.33 49.38 398.11 49.38C400.24 49.38 402.42 48.07 403.72 46.77L403.72 42.94Z" />
			<path id="Layer" class="shp1" d="M417.6 53.25C415.47 53.25 414.38 52.25 414.38 50.25C414.38 48.29 415.47 47.25 417.6 47.25C419.69 47.25 420.78 48.29 420.78 50.25C420.77 52.21 419.68 53.25 417.6 53.25Z" />
		</g>
		<g id="Layer">
			<g id="Layer">
				<g id="Layer">
					<g id="Layer">
						<path id="Layer" class="shp4" d="M250.15 175.78L250.15 174.36L252.3 174.2C252.61 174.18 252.66 174.09 252.66 173.76L252.66 169.65L248.24 161.75C248.11 161.51 247.97 161.44 247.71 161.37L246.71 161.13L246.93 159.71L252.55 159.71L252.55 161.13L250.86 161.33L254.01 167.39L254.12 167.39L257.29 161.33L255.63 161.13L255.85 159.71L260.87 159.71L260.87 161.13L259.94 161.37C259.7 161.44 259.5 161.53 259.38 161.79L255.25 169.6L255.25 173.73C255.25 174.09 255.27 174.13 255.61 174.18L257.9 174.36L257.9 175.78L250.15 175.78Z" />
						<path id="Layer" fill-rule="evenodd" class="shp4" d="M268.79 167.69C268.79 162.98 271.45 159.41 276.6 159.41C281.75 159.41 283.99 162.98 283.99 167.45C283.99 172.67 281.46 176.04 276.29 176.04C271.06 176.04 268.79 172.58 268.79 167.69ZM281.33 167.65C281.33 163.56 279.51 161.57 276.58 161.57C273.58 161.57 271.47 163.59 271.47 167.67C271.47 171.95 273.4 173.88 276.38 173.88C279.32 173.89 281.33 172.05 281.33 167.65Z" />
						<path id="Layer" class="shp4" d="M305.17 161.72C305.17 161.39 305.13 161.3 304.81 161.28L303.41 161.12L303.41 159.7L309.34 159.7L309.34 161.12L307.85 161.3C307.52 161.35 307.49 161.39 307.49 161.72L307.49 170.24C307.49 174.24 305.25 176.03 301.41 176.03C297.17 176.03 295.44 174.08 295.44 170.17L295.44 161.71C295.44 161.38 295.4 161.29 295.08 161.27L293.68 161.11L293.68 159.69L299.87 159.69L299.87 161.11L298.38 161.29C298.05 161.34 298.02 161.38 298.02 161.71L298.02 169.79C298.02 172.61 299 173.87 301.53 173.87C304.04 173.87 305.15 172.83 305.15 169.85L305.15 161.72L305.17 161.72Z" />
						<path id="Layer" fill-rule="evenodd" class="shp4" d="M326.99 174.38L328.45 174.18L326.79 169.98C326.52 169.29 326.17 169.03 325.41 169.03L323.52 169.03L323.52 173.74C323.52 174.1 323.54 174.14 323.88 174.19L325.3 174.37L325.3 175.79L319.2 175.79L319.2 174.37L320.6 174.21C320.91 174.16 320.96 174.1 320.96 173.77L320.96 161.76C320.96 161.43 320.92 161.34 320.6 161.32L319.2 161.16L319.2 159.72L326.3 159.72C330.3 159.72 331.36 161.89 331.36 164.12C331.36 166.45 330.12 167.72 328.36 168.4C329.05 168.73 329.27 169.27 329.69 170.33L331.02 173.73C331.2 174.06 331.35 174.11 331.69 174.15L333.04 174.37L333.04 175.79L326.99 175.79L326.99 174.38ZM325.17 167.14C327.06 167.14 328.68 166.63 328.68 164.21C328.68 162.17 327.44 161.64 325.02 161.64L323.53 161.64L323.53 167.14L325.17 167.14Z" />
						<path id="Layer" fill-rule="evenodd" class="shp4" d="M363.6 175.78L363.6 174.36L365.42 174.16L364.4 171.16L358.47 171.16L357.45 174.16L359.23 174.36L359.23 175.78L353.68 175.78L353.68 174.38L354.63 174.14C354.9 174.07 355.1 173.98 355.18 173.72L360.06 159.71L363.19 159.71L368.1 173.76C368.19 174.03 368.37 174.07 368.63 174.14L369.65 174.38L369.65 175.78L363.6 175.78ZM361.49 162.17L361.42 162.17L359.04 169.21L363.83 169.21L361.49 162.17Z" />
						<path id="Layer" class="shp4" d="M391.08 174.84C389.84 175.64 387.68 176.04 385.66 176.04C380.2 176.04 377.98 172.69 377.98 167.65C377.98 162.92 380.67 159.41 386.08 159.41C387.99 159.41 389.88 159.88 391.03 160.63L391.03 164.52L389.14 164.39L388.76 162.24C388.74 162.04 388.67 161.93 388.45 161.86C387.76 161.64 386.9 161.46 385.96 161.46C382.74 161.46 380.68 163.59 380.68 167.65C380.68 171.89 382.63 174.02 385.81 174.02C386.72 174.02 387.83 173.93 388.56 173.64C388.78 173.57 388.87 173.51 388.92 173.22L389.28 171.18L391.08 171.18L391.08 174.84L391.08 174.84Z" />
						<path id="Layer" fill-rule="evenodd" class="shp4" d="M410.08 175.78L410.08 174.36L411.9 174.16L410.88 171.16L404.95 171.16L403.93 174.16L405.71 174.36L405.71 175.78L400.16 175.78L400.16 174.38L401.11 174.14C401.38 174.07 401.58 173.98 401.66 173.72L406.54 159.71L409.67 159.71L414.58 173.76C414.67 174.03 414.85 174.07 415.11 174.14L416.13 174.38L416.13 175.78L410.08 175.78ZM407.97 162.17L407.9 162.17L405.52 169.21L410.31 169.21L407.97 162.17Z" />
						<path id="Layer" fill-rule="evenodd" class="shp4" d="M425.26 174.36L426.66 174.2C426.97 174.15 427.02 174.09 427.02 173.76L427.02 161.75C427.02 161.42 426.98 161.33 426.66 161.31L425.26 161.15L425.26 159.71L432.12 159.71C437.69 159.71 440.09 162.71 440.09 167.5C440.09 172.43 437.49 175.78 431.74 175.78L425.26 175.78L425.26 174.36ZM431.59 173.84C435.7 173.84 437.43 171.49 437.43 167.74C437.43 163.14 435.48 161.64 431.72 161.64L429.61 161.64L429.61 173.85L431.59 173.85L431.59 173.84Z" />
						<path id="Layer" class="shp4" d="M449.99 175.78L449.99 174.36L451.39 174.2C451.7 174.15 451.75 174.09 451.75 173.76L451.75 161.75C451.75 161.42 451.71 161.33 451.39 161.31L449.99 161.15L449.99 159.71L461.4 159.71L461.4 163.71L459.51 163.62L459.2 161.91C459.16 161.69 459.07 161.62 458.82 161.62L454.34 161.62L454.34 166.72L459.98 166.72L459.98 168.65L454.34 168.65L454.34 173.89L459.31 173.89C459.55 173.89 459.62 173.87 459.67 173.65L460.03 171.7L461.89 171.7L461.89 175.79L449.99 175.79L449.99 175.78Z" />
						<path id="Layer" class="shp4" d="M484.42 175.78L484.42 174.36L486.26 174.2C486.57 174.18 486.62 174.09 486.62 173.76L486.62 163.66L486.55 163.66L482.69 172.23L479.8 172.23L475.91 163.55L475.87 163.55L475.87 173.74C475.87 174.1 475.89 174.16 476.23 174.19L478.14 174.37L478.14 175.79L471.88 175.79L471.88 174.37L473.28 174.21C473.59 174.19 473.64 174.1 473.64 173.77L473.64 161.76C473.64 161.43 473.6 161.34 473.28 161.32L471.88 161.16L471.88 159.72L476.87 159.72L481.42 170.11L481.49 170.11L486.11 159.72L490.88 159.72L490.88 161.14L489.39 161.32C489.06 161.37 489.03 161.41 489.03 161.74L489.03 173.77C489.03 174.06 489.1 174.17 489.39 174.19L490.88 174.37L490.88 175.79L484.42 175.79L484.42 175.78Z" />
						<path id="Layer" class="shp4" d="M500.91 175.78L500.91 174.36L502.53 174.2C502.84 174.18 502.89 174.09 502.89 173.76L502.89 161.73C502.89 161.4 502.85 161.31 502.53 161.29L500.91 161.13L500.91 159.71L507.55 159.71L507.55 161.13L505.84 161.31C505.51 161.36 505.48 161.4 505.48 161.73L505.48 173.74C505.48 174.1 505.5 174.14 505.84 174.19L507.55 174.37L507.55 175.79L500.91 175.79L500.91 175.78Z" />
						<path id="Layer" class="shp4" d="M530.43 174.84C529.19 175.64 527.03 176.04 525.01 176.04C519.55 176.04 517.33 172.69 517.33 167.65C517.33 162.92 520.02 159.41 525.43 159.41C527.34 159.41 529.23 159.88 530.38 160.63L530.38 164.52L528.49 164.39L528.11 162.24C528.09 162.04 528.02 161.93 527.8 161.86C527.11 161.64 526.25 161.46 525.31 161.46C522.09 161.46 520.03 163.59 520.03 167.65C520.03 171.89 521.98 174.02 525.16 174.02C526.07 174.02 527.18 173.93 527.91 173.64C528.13 173.57 528.22 173.51 528.27 173.22L528.63 171.18L530.43 171.18L530.43 174.84L530.43 174.84Z" />
						<path id="Layer" fill-rule="evenodd" class="shp4" d="M553.12 174.36L554.52 174.2C554.83 174.15 554.88 174.09 554.88 173.76L554.88 161.75C554.88 161.42 554.84 161.33 554.52 161.31L553.12 161.15L553.12 159.71L560.25 159.71C564.36 159.71 565.6 161.88 565.6 164.44C565.6 168.28 563.27 169.77 559.52 169.77L557.45 169.77L557.45 173.74C557.45 174.1 557.47 174.14 557.81 174.19L560.98 174.37L560.98 175.79L553.12 175.79L553.12 174.36ZM559.2 167.85C561.13 167.85 562.91 167.43 562.91 164.57C562.91 162.31 561.62 161.64 559.45 161.64L557.45 161.64L557.45 167.85L559.2 167.85Z" />
						<path id="Layer" fill-rule="evenodd" class="shp4" d="M582.27 175.78L582.27 174.36L584.09 174.16L583.07 171.16L577.14 171.16L576.12 174.16L577.9 174.36L577.9 175.78L572.35 175.78L572.35 174.38L573.3 174.14C573.57 174.07 573.77 173.98 573.85 173.72L578.73 159.71L581.86 159.71L586.77 173.76C586.86 174.03 587.04 174.07 587.3 174.14L588.32 174.38L588.32 175.78L582.27 175.78ZM580.16 162.17L580.09 162.17L577.71 169.21L582.5 169.21L580.16 162.17Z" />
						<path id="Layer" class="shp4" d="M597.92 175.78L597.92 174.34L600.21 174.18C600.52 174.16 600.57 174.07 600.57 173.73L600.57 161.61L597.6 161.61C597.36 161.61 597.29 161.63 597.24 161.85L596.88 163.78L595.02 163.78L595.02 159.7L608.72 159.7L608.72 163.78L606.88 163.78L606.52 161.85C606.48 161.63 606.41 161.61 606.16 161.61L603.16 161.61L603.16 173.73C603.16 174.04 603.18 174.13 603.52 174.15L605.96 174.33L605.96 175.77L597.92 175.77L597.92 175.78Z" />
						<path id="Layer" class="shp4" d="M627.86 175.78L627.86 174.36L629.26 174.2C629.57 174.15 629.62 174.09 629.62 173.76L629.62 168.48L622.61 168.48L622.61 173.74C622.61 174.1 622.63 174.14 622.97 174.19L624.46 174.37L624.46 175.79L618.27 175.79L618.27 174.37L619.67 174.21C619.98 174.16 620.03 174.1 620.03 173.77L620.03 161.74C620.03 161.41 619.99 161.32 619.67 161.3L618.27 161.14L618.27 159.72L624.46 159.72L624.46 161.14L622.97 161.32C622.64 161.37 622.61 161.41 622.61 161.74L622.61 166.54L629.62 166.54L629.62 161.74C629.62 161.41 629.58 161.32 629.26 161.3L627.86 161.14L627.86 159.72L633.96 159.72L633.96 161.14L632.56 161.32C632.23 161.37 632.2 161.41 632.2 161.74L632.2 173.75C632.2 174.11 632.22 174.15 632.56 174.2L633.96 174.38L633.96 175.8L627.86 175.8L627.86 175.78Z" />
					</g>
				</g>
			</g>
		</g>
	</g>
</svg>