<svg width="249" height="79" viewBox="0 0 249 79" fill="none" xmlns="http://www.w3.org/2000/svg">
<g clip-path="url(#clip0_377:2038)">
<path d="M69.8597 11.57C63.0351 4.76884 53.9565 0.685074 44.3273 0.0850115C34.6981 -0.515051 25.1802 2.40983 17.5598 8.3108C9.93937 14.2118 4.74017 22.6832 2.93782 32.1354C1.13548 41.5877 2.85388 51.371 7.77057 59.6494C9.37379 59.0868 11.0309 58.6907 12.7157 58.4674C16.4127 57.9727 20.1743 58.3398 23.7049 59.5399C18.6284 54.979 15.4629 48.6771 14.8398 41.8914C14.2168 35.1058 16.1821 28.3353 20.3437 22.9309C24.5052 17.5265 30.557 13.8856 37.2916 12.7346C44.0261 11.5836 50.9482 13.0071 56.6768 16.7211C62.4054 20.4351 66.5192 26.1666 68.1974 32.7719C69.8757 39.3772 68.9949 46.3707 65.731 52.357C62.467 58.3433 57.0598 62.8823 50.5882 65.0683C44.1166 67.2543 37.0565 66.9266 30.8165 64.1505C23.3988 60.5888 17.8257 61.0898 13.1631 62.7337C0.604028 67.1486 -0.0239267 77.6068 -0.0239267 77.6068C10.1411 66.4598 23.5479 74.6009 23.5479 74.6009V74.5618C31.9432 78.9314 41.6302 80.1575 50.8539 78.0177C60.0775 75.878 68.2274 70.5141 73.8268 62.8979C79.4263 55.2817 82.1048 45.9171 81.377 36.5011C80.6492 27.085 76.5633 18.2404 69.8597 11.57Z" fill="white"/>
<path d="M65.3466 33.1515C65.3585 33.3027 65.3184 33.4534 65.2327 33.5786C65.1471 33.7039 65.0211 33.7963 64.8756 33.8404L51.6415 37.1673L42.1829 31.899C42.08 31.8516 41.9636 31.8421 41.8544 31.8722C41.7452 31.9023 41.6502 31.9701 41.5863 32.0634C41.5262 32.1739 41.5113 32.3035 41.545 32.4247C41.5787 32.5459 41.6582 32.6493 41.7669 32.7131L50.3463 37.496L43.4624 39.226C42.4062 39.4921 41.3003 39.4921 40.2441 39.226L18.8387 33.8404C18.7013 33.7847 18.5837 33.6894 18.5009 33.5667C18.4181 33.4439 18.3739 33.2994 18.3739 33.1515C18.3739 33.0036 18.4181 32.8591 18.5009 32.7364C18.5837 32.6137 18.7013 32.5184 18.8387 32.4627L40.2519 27.0692C41.3087 26.8082 42.4134 26.8082 43.4702 27.0692L64.8835 32.4627C65.0275 32.5082 65.1517 32.6012 65.2358 32.7263C65.32 32.8515 65.359 33.0014 65.3466 33.1515ZM51.5787 38.5059V42.2398C52.3513 43.7488 52.8155 45.3959 52.9445 47.0853C52.3842 47.4183 51.7442 47.5941 51.092 47.5941C50.4398 47.5941 49.7998 47.4183 49.2395 47.0853C49.3685 45.3959 49.8328 43.7488 50.6054 42.2398V38.7564L43.69 40.4942C42.4843 40.7967 41.2222 40.7967 40.0165 40.4942L27.2454 37.2769V47.7272C27.2454 50.2478 33.525 54.1383 41.8532 54.1383C50.1815 54.1383 56.461 50.2243 56.461 47.7272V37.2769L51.5787 38.5059Z" fill="white"/>
<path d="M109.429 42.506H100.551V49.966H111.054V54.6628H94.8605V26.5369H111.015V31.2337H100.551V37.8796H109.429V42.506Z" fill="white"/>
<path d="M116.392 54.7176V26.5369H123.856C125.313 26.4691 126.767 26.7135 128.122 27.2537C129.476 27.7938 130.698 28.6171 131.706 29.6681C133.668 31.7555 134.668 34.6258 134.704 38.2788V42.8347C134.704 46.5348 133.726 49.4363 131.769 51.5394C129.811 53.6426 127.114 54.6863 123.676 54.6706L116.392 54.7176ZM122.09 31.3198V50.0052H123.794C125.693 50.0052 127.035 49.5042 127.805 48.5022C128.574 47.5002 128.99 45.7859 129.029 43.3357V38.4041C129.029 35.7948 128.66 33.9682 127.922 32.9245C127.185 31.8912 125.936 31.3589 124.162 31.2963L122.09 31.3198Z" fill="white"/>
<path d="M157.319 26.5369V46.0207C157.319 48.9484 156.486 51.1794 154.901 52.7371C153.315 54.2949 151.031 55.0855 148.056 55.0855C145.081 55.0855 142.726 54.3027 141.133 52.7371C139.54 51.1715 138.739 48.8936 138.739 45.919V26.5369H144.477V45.9033C144.377 47.0971 144.651 48.2924 145.262 49.3241C145.772 50.0052 146.714 50.3496 148.064 50.3496C149.414 50.3496 150.356 50.013 150.858 49.332C151.451 48.3245 151.724 47.1623 151.643 45.9972V26.5369H157.319Z" fill="white"/>
<path d="M169.085 49.966H179.085V54.6628H163.386V26.5369H169.085V49.966Z" fill="white"/>
<path d="M197.162 48.9171H189.391L187.884 54.7176H181.856L190.671 26.5369H195.883L204.761 54.7176H198.677L197.162 48.9171ZM190.632 44.2203H195.906L193.269 34.1926L190.632 44.2203Z" fill="white"/>
<path d="M228.073 54.7176H222.375L214.046 36.2201V54.7176H208.348V26.5369H214.046L222.398 45.0109V26.5369H228.073V54.7176Z" fill="white"/>
<path d="M247.375 42.506H238.497V49.966H249V54.6628H232.807V26.5369H248.961V31.2337H238.497V37.8796H247.375V42.506Z" fill="white"/>
<path d="M94.8762 19.4917V18.4193L95.9673 18.3018C96.2106 18.3018 96.242 18.2157 96.242 17.9574V8.60296C96.242 8.34464 96.242 8.27419 95.9673 8.25853L94.8762 8.13329V7.01389H99.9862V8.13329L98.5497 8.27419C98.2907 8.27419 98.275 8.3603 98.275 8.60296V18.0592H102.153C102.341 18.0592 102.396 18.0592 102.427 17.8635L102.71 16.2274H104.162V19.4917H94.8762Z" fill="white"/>
<path d="M111.203 19.4917L111.03 18.474H110.975C110.579 18.8764 110.104 19.1943 109.581 19.4082C109.057 19.6222 108.496 19.7278 107.93 19.7187C105.74 19.7187 105.449 18.2314 105.449 17.2607C105.449 15.5385 106.525 14.7088 108.636 14.5366L110.842 14.3565V13.4954C110.842 12.4073 110.646 11.8202 109.272 11.8202C108.322 11.8202 107.702 11.8829 107.702 13.0806L105.834 12.9083C105.834 10.693 107.859 10.419 109.335 10.419C111.847 10.419 112.781 11.1236 112.781 13.5502V17.9261C112.781 18.2001 112.781 18.2314 113.056 18.2705L113.911 18.3879V19.4917H111.203ZM110.842 15.5777L109.194 15.7108C107.891 15.836 107.49 16.1961 107.49 17.0259C107.49 17.8556 107.891 18.1296 108.605 18.1296C109.446 18.0833 110.241 17.7326 110.842 17.1433V15.5777Z" fill="white"/>
<path d="M120.387 19.4917V18.4349L121.258 18.3331C121.502 18.3331 121.533 18.1922 121.533 17.9887V14.0121C121.533 12.971 121.415 12.1099 120.301 12.1099C119.444 12.1742 118.626 12.4871 117.946 13.0101V17.9261C117.946 18.2001 117.946 18.2314 118.22 18.2705L119.139 18.3879V19.4917H114.845V18.4036L115.677 18.3018C115.921 18.3018 115.952 18.2157 115.952 17.9574V12.3917C115.952 12.196 115.897 12.0786 115.724 12.0238L114.759 11.6637L114.932 10.56H117.498L117.632 11.5071H117.702C118.638 10.8001 119.771 10.4007 120.944 10.3643C122.82 10.3643 123.527 11.5385 123.527 13.4955V17.9261C123.527 18.2001 123.527 18.2314 123.801 18.2705L124.759 18.3879V19.4917H120.387Z" fill="white"/>
<path d="M132.891 11.9533C133.313 12.4531 133.547 13.0846 133.55 13.7381C133.55 15.7421 131.981 16.8693 129.924 16.8693C129.435 16.8855 128.946 16.8327 128.472 16.7127L127.687 18.0278L129.822 18.1296C132.907 18.2862 134.375 18.4427 134.375 20.5328C134.375 22.3645 132.805 23.437 129.767 23.437C126.729 23.437 125.591 22.6229 125.591 21.2921C125.617 20.9192 125.726 20.5567 125.909 20.2306C126.092 19.9044 126.346 19.6227 126.651 19.4056C126.425 19.3286 126.229 19.1844 126.089 18.9926C125.949 18.8008 125.871 18.5706 125.866 18.3331C125.87 18.148 125.912 17.9656 125.987 17.7963C126.063 17.6271 126.171 17.4743 126.305 17.3468C126.58 17.0337 126.941 16.6031 127.255 16.2744C126.818 16.0162 126.461 15.6429 126.223 15.1955C125.984 14.748 125.875 14.2438 125.905 13.7381C125.905 11.8203 127.255 10.419 129.736 10.419C130.282 10.4115 130.828 10.4694 131.36 10.5913H134.5V11.8516L132.891 11.9533ZM128.032 19.7813C127.678 20.0964 127.447 20.5262 127.381 20.9946C127.381 21.7774 128.291 22.0514 129.806 22.0514C130.685 22.0514 132.365 21.9105 132.365 20.8068C132.365 20.024 131.714 20.024 130.701 19.9379L128.032 19.7813ZM129.838 11.8359C129.576 11.8018 129.311 11.8258 129.06 11.9063C128.809 11.9868 128.58 12.1218 128.387 12.3014C128.195 12.4811 128.045 12.7011 127.949 12.9454C127.852 13.1898 127.811 13.4525 127.828 13.7146C127.828 14.7009 128.362 15.4446 129.783 15.4446C130.033 15.4757 130.287 15.4534 130.527 15.379C130.768 15.3047 130.99 15.18 131.179 15.0134C131.367 14.8467 131.518 14.6419 131.621 14.4126C131.724 14.1832 131.777 13.9346 131.776 13.6833C131.8 13.4267 131.765 13.1681 131.675 12.9267C131.584 12.6853 131.441 12.4672 131.255 12.2884C131.069 12.1096 130.845 11.9747 130.6 11.8937C130.354 11.8127 130.094 11.7876 129.838 11.8203V11.8359Z" fill="white"/>
<path d="M140.795 19.4917L140.623 18.474H140.568C140.17 18.8774 139.695 19.1958 139.17 19.4098C138.645 19.6238 138.081 19.7289 137.514 19.7187C135.332 19.7187 135.042 18.2314 135.042 17.2607C135.042 15.5385 136.117 14.7088 138.229 14.5366L140.427 14.3565V13.4954C140.427 12.4073 140.238 11.8202 138.904 11.8202C137.954 11.8202 137.334 11.8829 137.334 13.0806L135.458 12.9083C135.458 10.693 137.491 10.419 138.959 10.419C141.478 10.419 142.412 11.1236 142.412 13.5502V17.9261C142.412 18.2001 142.412 18.2314 142.687 18.2705L143.535 18.3879V19.4917H140.795ZM140.427 15.5777L138.786 15.7108C137.483 15.836 137.083 16.1961 137.083 17.0259C137.083 17.8556 137.483 18.1296 138.197 18.1296C139.037 18.085 139.83 17.7339 140.427 17.1433V15.5777Z" fill="white"/>
<path d="M144.43 19.4917V18.4036L145.262 18.3018C145.505 18.3018 145.544 18.2157 145.544 17.9574V12.3917C145.556 12.3135 145.539 12.2337 145.498 12.1665C145.456 12.0992 145.392 12.0487 145.317 12.0238L144.351 11.6637L144.524 10.5599H147.106L147.295 11.8202H147.35C147.636 11.3991 148.019 11.0522 148.467 10.8084C148.915 10.5647 149.414 10.4312 149.924 10.419C150.379 10.4231 150.831 10.4756 151.274 10.5756V13.4093L149.705 13.3389L149.493 12.2664C149.493 12.1099 149.446 12.0786 149.289 12.0786C148.621 12.1765 148.005 12.4932 147.538 12.9788V17.9261C147.538 18.2079 147.538 18.2548 147.829 18.2705L149.461 18.4114V19.4917H144.43Z" fill="white"/>
<path d="M157.625 19.4917L157.452 18.474H157.397C157 18.8764 156.526 19.1943 156.002 19.4082C155.479 19.6222 154.917 19.7278 154.351 19.7187C152.169 19.7187 151.871 18.2314 151.871 17.2607C151.871 15.5385 152.946 14.7088 155.058 14.5366L157.264 14.3565V13.4954C157.264 12.4073 157.067 11.8202 155.733 11.8202C154.783 11.8202 154.163 11.8829 154.163 13.0806L152.279 12.9083C152.279 10.693 154.304 10.419 155.78 10.419C158.292 10.419 159.226 11.1236 159.226 13.5502V17.9261C159.226 18.2001 159.226 18.2314 159.509 18.2705L160.356 18.3879V19.4917H157.625ZM157.264 15.5777L155.615 15.7108C154.312 15.836 153.92 16.1961 153.92 17.0259C153.92 17.8556 154.312 18.1296 155.026 18.1296C155.868 18.0833 156.663 17.7326 157.264 17.1433V15.5777Z" fill="white"/>
<path d="M162.79 19.7343C161.942 19.7343 161.51 19.3351 161.51 18.5445C161.51 17.7539 161.942 17.3468 162.79 17.3468C162.956 17.3207 163.126 17.3331 163.287 17.383C163.448 17.433 163.595 17.5192 163.718 17.635C163.84 17.7507 163.934 17.893 163.992 18.0507C164.05 18.2084 164.071 18.3774 164.053 18.5445C164.053 19.3195 163.622 19.7343 162.79 19.7343Z" fill="white"/>
<path d="M96.0693 68.4166V67.8529L96.9328 67.7903C97.0584 67.7903 97.0741 67.7903 97.0741 67.6181V65.9821L95.3158 62.8509C95.2949 62.811 95.2648 62.7767 95.2279 62.7508C95.191 62.725 95.1485 62.7083 95.1038 62.7021L94.7035 62.6082L94.7899 62.0367H97.027V62.6082L96.3597 62.6865L97.6157 65.0897L98.8794 62.6865L98.2201 62.6082L98.3064 62.0367H100.308V62.6082L99.9313 62.7021C99.8839 62.7093 99.839 62.7281 99.8006 62.7568C99.7623 62.7854 99.7317 62.8232 99.7115 62.8665L98.0709 65.9977V67.6416C98.0709 67.7825 98.0709 67.7981 98.2122 67.8138L99.1228 67.8843V68.4479L96.0693 68.4166Z" fill="white"/>
<path d="M103.503 65.2071C103.503 63.3362 104.562 61.9193 106.643 61.9193C108.723 61.9193 109.586 63.3362 109.586 65.1132C109.586 67.1797 108.573 68.5262 106.517 68.5262C104.46 68.5262 103.503 67.1484 103.503 65.2071ZM108.503 65.2071C108.503 63.5789 107.773 62.7882 106.603 62.7882C105.434 62.7882 104.57 63.5711 104.57 65.2149C104.57 66.8588 105.355 67.6807 106.525 67.6807C107.694 67.6807 108.503 66.9371 108.503 65.1914V65.2071Z" fill="white"/>
<path d="M118.001 62.8352C118.001 62.7021 118.001 62.6708 117.859 62.6552L117.302 62.6004V62.0289H119.657V62.6004L119.06 62.6708C118.927 62.6708 118.919 62.6708 118.919 62.8352V66.2247C118.919 67.7903 118.024 68.5262 116.494 68.5262C114.806 68.5262 114.139 67.7434 114.139 66.1778V62.8196C114.139 62.6865 114.139 62.6552 113.997 62.6395L113.44 62.5847V62.0133H115.913V62.5847L115.316 62.6552C115.183 62.6552 115.175 62.6552 115.175 62.8196V66.029C115.175 67.1484 115.567 67.6494 116.572 67.6494C117.577 67.6494 118.016 67.2424 118.016 66.0838L118.001 62.8352Z" fill="white"/>
<path d="M126.69 68.4166V67.8608L127.279 67.7825L126.612 66.1151C126.583 65.9955 126.511 65.8907 126.41 65.8212C126.308 65.7516 126.184 65.7225 126.062 65.7394H125.277V67.6103C125.277 67.7512 125.277 67.7669 125.426 67.7825L125.991 67.853V68.4166H123.558V67.853L124.115 67.7903C124.241 67.7903 124.257 67.7903 124.257 67.6181V62.843C124.257 62.71 124.257 62.6787 124.115 62.6708L123.558 62.6082V62.0289H126.384C127.954 62.0289 128.401 62.8978 128.401 63.7824C128.42 64.1575 128.312 64.528 128.096 64.8356C127.88 65.1432 127.568 65.3703 127.208 65.4811C127.483 65.6142 127.569 65.8255 127.742 66.2639L128.268 67.6103C128.289 67.663 128.326 67.708 128.374 67.7388C128.421 67.7697 128.478 67.7849 128.535 67.7825L129.076 67.8686V68.4322L126.69 68.4166ZM125.968 64.9879C126.753 64.9879 127.365 64.7844 127.365 63.8215C127.365 63.0387 126.871 62.7961 125.905 62.7961H125.308V64.9879H125.968Z" fill="white"/>
<path d="M141.29 68.4166V67.853L142.02 67.7747L141.612 66.5848H139.257L138.849 67.7747L139.555 67.853V68.4166H137.365V67.8608L137.742 67.7668C137.852 67.7668 137.93 67.7042 137.962 67.5946L139.908 62.0289H141.157L143.111 67.6181C143.111 67.7199 143.221 67.7355 143.323 67.7668L143.731 67.8608V68.4166H141.29ZM140.45 63.0074L139.5 65.8099H141.416L140.45 63.0074Z" fill="white"/>
<path d="M152.224 68.0252C151.557 68.3652 150.814 68.5295 150.066 68.5027C147.891 68.5027 147.004 67.1719 147.004 65.168C146.963 64.732 147.018 64.2923 147.165 63.8797C147.312 63.467 147.548 63.0916 147.856 62.7797C148.164 62.4678 148.537 62.2271 148.949 62.0744C149.36 61.9217 149.801 61.8607 150.238 61.8959C150.927 61.8749 151.609 62.0428 152.209 62.3812V63.9468L151.424 63.892L151.274 63.0387C151.277 63.0026 151.265 62.967 151.242 62.9393C151.218 62.9116 151.185 62.894 151.149 62.89C150.83 62.7827 150.496 62.7272 150.16 62.7256C148.88 62.7256 148.056 63.5789 148.056 65.1914C148.056 66.804 148.841 67.7199 150.097 67.7199C150.469 67.7332 150.841 67.6829 151.196 67.5712C151.235 67.5655 151.272 67.5457 151.298 67.5154C151.324 67.4852 151.338 67.4466 151.337 67.4068L151.479 66.624H152.193L152.224 68.0252Z" fill="white"/>
<path d="M159.799 68.4166V67.853L160.521 67.7747L160.113 66.5848H157.758L157.358 67.7747L158.064 67.853V68.4166H155.851V67.8608L156.235 67.7668C156.337 67.7668 156.416 67.7042 156.455 67.5946L158.402 62.0289H159.642L161.596 67.6181C161.596 67.7199 161.706 67.7355 161.816 67.7668L162.217 67.8608V68.4166H159.799ZM158.959 63.0074L158.017 65.8099H159.925L158.959 63.0074Z" fill="white"/>
<path d="M165.843 68.4166V67.853L166.4 67.7903C166.526 67.7903 166.542 67.7903 166.542 67.6181V62.843C166.542 62.71 166.542 62.6787 166.4 62.6708L165.843 62.6082V62.0289H168.582C170.796 62.0289 171.722 63.2266 171.722 65.1601C171.722 67.0936 170.686 68.4479 168.394 68.4479L165.843 68.4166ZM168.371 67.6338C170.003 67.6338 170.725 66.7022 170.725 65.2071C170.725 63.3832 169.94 62.7804 168.449 62.7804H167.609V67.6338H168.371Z" fill="white"/>
<path d="M175.702 68.4166V67.853L176.259 67.7903C176.377 67.7903 176.401 67.7903 176.401 67.6181V62.843C176.401 62.71 176.401 62.6787 176.259 62.6708L175.702 62.6082V62.0289H180.247V63.5945H179.462L179.336 62.9135C179.336 62.8274 179.281 62.7961 179.187 62.7961H177.397V64.8235H179.65V65.6063H177.397V67.6807H179.383C179.477 67.6807 179.509 67.6807 179.525 67.5868L179.666 66.804H180.412V68.4244L175.702 68.4166Z" fill="white"/>
<path d="M189.415 68.4166V67.853L190.153 67.7903C190.278 67.7903 190.294 67.7903 190.294 67.6181V63.6024L188.724 67.0075H187.602L186.032 63.5554V67.6103C186.032 67.7512 186.032 67.7747 186.173 67.7825L186.958 67.853V68.4166H184.462V67.853L185.019 67.7903C185.137 67.7903 185.16 67.7903 185.16 67.6181V62.843C185.16 62.71 185.161 62.6787 185.019 62.6708L184.462 62.6082V62.0289H186.448L188.261 66.1621L190.106 62.0289H192.005V62.6004L191.416 62.6708C191.283 62.6708 191.275 62.6708 191.275 62.8352V67.6181C191.275 67.7277 191.275 67.7747 191.416 67.7825L192.005 67.853V68.4166H189.415Z" fill="white"/>
<path d="M195.985 68.4166V67.853L196.636 67.7903C196.754 67.7903 196.778 67.7903 196.778 67.6181V62.8352C196.778 62.7021 196.778 62.6708 196.636 62.6552L195.985 62.6004V62.0289H198.63V62.6004L197.955 62.6708C197.822 62.6708 197.814 62.6708 197.814 62.8352V67.6103C197.814 67.7512 197.814 67.7669 197.955 67.7825L198.63 67.853V68.4166H195.985Z" fill="white"/>
<path d="M207.751 68.0251C207.084 68.3651 206.341 68.5295 205.593 68.5027C203.418 68.5027 202.531 67.1719 202.531 65.1679C202.49 64.7327 202.545 64.2937 202.691 63.8817C202.838 63.4697 203.073 63.0947 203.381 62.7829C203.688 62.4712 204.06 62.2302 204.471 62.077C204.881 61.9238 205.32 61.8619 205.757 61.8958C206.449 61.875 207.133 62.0428 207.736 62.3812V63.9468L206.951 63.892L206.801 63.0387C206.802 63.003 206.789 62.9684 206.766 62.9411C206.743 62.9138 206.711 62.8956 206.676 62.89C206.357 62.7827 206.023 62.7272 205.687 62.7256C204.399 62.7256 203.583 63.5789 203.583 65.1914C203.583 66.804 204.368 67.7199 205.624 67.7199C205.996 67.7325 206.368 67.6822 206.723 67.5711C206.809 67.5711 206.841 67.5163 206.864 67.4067L207.006 66.6239H207.72L207.751 68.0251Z" fill="white"/>
<path d="M216.794 68.4166V67.853L217.343 67.7903C217.469 67.7903 217.492 67.7903 217.492 67.6181V62.843C217.492 62.71 217.492 62.6787 217.343 62.6708L216.794 62.6082V62.0289H219.627C221.268 62.0289 221.762 62.8978 221.762 63.9076C221.762 65.4732 220.828 66.029 219.337 66.029H218.513V67.5946C218.513 67.7355 218.513 67.7512 218.654 67.7668L219.918 67.8373V68.4009L216.794 68.4166ZM219.211 65.2854C219.996 65.2854 220.687 65.121 220.687 63.9781C220.687 63.0779 220.177 62.8117 219.313 62.8117H218.528V65.2854H219.211Z" fill="white"/>
<path d="M228.419 68.4166V67.853L229.141 67.7747L228.741 66.5848H226.386L225.978 67.7747L226.684 67.853V68.4166H224.471V67.8608L224.855 67.7668C224.957 67.7668 225.036 67.7042 225.075 67.5946L227.022 62.0289H228.27L230.224 67.6181C230.224 67.7199 230.326 67.7355 230.436 67.7668L230.844 67.8608V68.4166H228.419ZM227.579 63.0074L226.629 65.8099H228.537L227.579 63.0074Z" fill="white"/>
<path d="M234.636 68.4166V67.8451L235.546 67.7825C235.672 67.7825 235.687 67.7355 235.687 67.6103V62.7882H234.502C234.408 62.7882 234.384 62.7882 234.361 62.89L234.22 63.6728H233.482V62.0446H238.937V63.6728H238.199L238.058 62.89C238.058 62.7961 238.058 62.7882 237.917 62.7882H236.723V67.6103C236.723 67.7277 236.723 67.7668 236.865 67.7747L237.838 67.8451V68.4166H234.636Z" fill="white"/>
<path d="M246.567 68.4166V67.853L247.124 67.7903C247.25 67.7903 247.265 67.7903 247.265 67.6181V65.5202H244.471V67.6103C244.471 67.7512 244.471 67.7669 244.612 67.7825L245.209 67.853V68.4166H242.736V67.853L243.293 67.7903C243.419 67.7903 243.435 67.7903 243.435 67.6181V62.8352C243.435 62.7021 243.435 62.6708 243.293 62.6552L242.736 62.6004V62.0289H245.209V62.6004L244.612 62.6708C244.479 62.6708 244.471 62.6708 244.471 62.8352V64.7374H247.257V62.8352C247.257 62.7021 247.257 62.6708 247.116 62.6552L246.559 62.6004V62.0289H248.992V62.6004L248.435 62.6708C248.301 62.6708 248.294 62.6708 248.294 62.8352V67.6103C248.294 67.7512 248.294 67.7669 248.435 67.7825L248.992 67.853V68.4166H246.567Z" fill="white"/>
</g>
<defs>
<clipPath id="clip0_377:2038">
<rect width="249" height="79" fill="white"/>
</clipPath>
</defs>
</svg>
