<svg id="Layer_1" data-name="Layer 1" xmlns="http://www.w3.org/2000/svg" xmlns:xlink="http://www.w3.org/1999/xlink" viewBox="0 0 32.38 32.39"><defs><style>.cls-1{fill:none;}.cls-2{clip-path:url(#clip-path);}.cls-3{fill:#fff;stroke:#0e23ad;stroke-miterlimit:10;}.cls-4{fill:#0e23ad;}</style><clipPath id="clip-path" transform="translate(0.19 0.19)"><rect class="cls-1" width="32" height="32"/></clipPath></defs><g class="cls-2"><path class="cls-3" d="M.32,21.65V10.35A10,10,0,0,1,2,4.77,10.67,10.67,0,0,1,3.26,3.26,10.25,10.25,0,0,1,6.52,1.08,10.44,10.44,0,0,1,8.4.51a10,10,0,0,1,2-.2H21.65A10,10,0,0,1,27.23,2a9.11,9.11,0,0,1,1.52,1.25,10,10,0,0,1,2.94,7.1V21.65A10.06,10.06,0,0,1,30,27.23a9.69,9.69,0,0,1-1.26,1.52A9.46,9.46,0,0,1,27.23,30a10,10,0,0,1-5.58,1.7H10.35a9.16,9.16,0,0,1-1.95-.2,9,9,0,0,1-1.89-.57,10,10,0,0,1-3.25-2.17A10.7,10.7,0,0,1,2,27.24a11.16,11.16,0,0,1-.93-1.74,10.11,10.11,0,0,1-.76-3.84Z" transform="translate(0.19 0.19)"/><path class="cls-4" d="M15.38,19.76V16.63H12.24a.63.63,0,0,1-.44-.19.6.6,0,0,1,0-.88.63.63,0,0,1,.44-.19h3.14V12.24a.62.62,0,0,1,.63-.63.62.62,0,0,1,.44.18.63.63,0,0,1,.18.45v3.13h3.14a.63.63,0,0,1,0,1.26H16.63v3.13a.63.63,0,0,1-.18.45.62.62,0,0,1-.44.18.62.62,0,0,1-.63-.63Z" transform="translate(0.19 0.19)"/></g></svg>