<?xml version="1.0" encoding="utf-8"?>
<!-- Generator: Adobe Illustrator 26.0.1, SVG Export Plug-In . SVG Version: 6.00 Build 0)  -->
<svg version="1.1" id="Layer_1" xmlns="http://www.w3.org/2000/svg" xmlns:xlink="http://www.w3.org/1999/xlink" x="0px" y="0px"
	 viewBox="0 0 624.9 198.8" style="enable-background:new 0 0 624.9 198.8;" xml:space="preserve">
<style type="text/css">
	.st0{fill:url(#SVGID_1_);}
	.st1{fill:#2B3C98;}
	.st2{fill:#E85E2C;}
	.st3{fill:#F15523;}
	.st4{fill:#636567;}
</style>
<g id="background">
</g>
<g id="Logo">
	
		<linearGradient id="SVGID_1_" gradientUnits="userSpaceOnUse" x1="0" y1="-44.6" x2="204.44" y2="-44.6" gradientTransform="matrix(1 0 0 -1 0 54.8)">
		<stop  offset="0.2598" style="stop-color:#F15523"/>
		<stop  offset="0.9544" style="stop-color:#2B3C98"/>
	</linearGradient>
	<path class="st0" d="M175.3,29.1C156.5,10.3,131.6,0,105,0C78.5,0,53.5,10.3,34.7,29.1C16,47.9,5.6,72.9,5.6,99.4
		c0,18.1,4.8,35.5,13.9,50.7c3.7-1.3,7.8-2.4,12.4-3c8-1.1,17.2-0.7,27.6,2.7c-13.8-12.4-22.5-30.4-22.5-50.4c0-37.5,30.5-68,68-68
		s68,30.5,68,68s-30.5,68-68,68c-9.8,0-19.2-2.1-27.6-5.9c-18.6-9-32.6-7.7-44.3-3.6C1.6,169,0,195.3,0,195.3
		c25.5-28.1,59.1-7.6,59.1-7.6l0.1-0.1c14,7.3,29.6,11.2,45.9,11.2c26.5,0,51.5-10.3,70.3-29.1c18.8-18.8,29.1-43.7,29.1-70.3
		S194.1,47.9,175.3,29.1z"/>
	<path class="st1" d="M164,83.4c0,0.7-0.3,1.5-1.2,1.7l-33.2,8.4l-23.7-13.3c-0.5-0.3-1.2-0.1-1.5,0.4c-0.4,0.6,0,1.4,0.5,1.6
		l21.5,12l-17.3,4.4c-2.6,0.7-5.4,0.7-8.1,0L47.3,85.2c-0.9-0.2-1.2-1-1.2-1.7s0.3-1.5,1.2-1.7L101,68.1c1.3-0.3,2.7-0.5,4-0.5
		c1.4,0,2.7,0.2,4,0.5l53.8,13.6C163.7,81.9,164,82.7,164,83.4z M129.5,96.9v9.4c1.8,3.4,3,7.5,3.4,12.2c-1.5,0.8-3,1.3-4.6,1.3
		s-3.2-0.5-4.6-1.3c0.4-4.6,1.6-8.8,3.4-12.2v-8.8l-17.4,4.4c-1.5,0.4-3.1,0.6-4.6,0.6c-1.5,0-3.1-0.2-4.6-0.6l-32.1-8.1v26.3
		c0,6.4,15.7,16.1,36.7,16.1s36.7-9.8,36.7-16.1V93.8L129.5,96.9z"/>
	<g>
		<g>
			<path class="st1" d="M274.6,107h-22.3v18.8h26.4v11.9h-40.7V66.8h40.6v11.9h-26.3v16.7h22.3L274.6,107L274.6,107z"/>
			<path class="st1" d="M292.1,137.6V66.8h18.7c8.3,0,14.9,2.6,19.8,7.9c4.9,5.2,7.4,12.5,7.5,21.6v11.5c0,9.3-2.5,16.6-7.4,21.9
				c-4.9,5.3-11.7,8-20.3,8L292.1,137.6L292.1,137.6z M306.4,78.7v47h4.3c4.8,0,8.1-1.3,10.1-3.8c2-2.5,3-6.9,3.1-13V96.7
				c0-6.6-0.9-11.2-2.8-13.8c-1.8-2.6-5-4-9.4-4.1L306.4,78.7L306.4,78.7z"/>
			<path class="st1" d="M394.8,66.8v49c-0.1,7.4-2.1,13-6.1,16.9s-9.7,5.9-17.2,5.9c-7.6,0-13.4-2-17.4-5.9c-4-4-6-9.7-6-17.2V66.8
				h14.4v48.7c0,4,0.7,6.9,2,8.6c1.3,1.7,3.7,2.6,7,2.6s5.7-0.9,7-2.5c1.3-1.7,1.9-4.5,2-8.4v-49L394.8,66.8L394.8,66.8z"/>
			<path class="st2" d="M424.4,125.7h25.1v11.9h-39.4V66.8h14.3V125.7z"/>
			<path class="st2" d="M494.8,123.1h-19.5l-3.8,14.5h-15.1l22.1-70.8h13.1l22.3,70.8h-15.3L494.8,123.1z M478.4,111.2h13.2
				L485.1,86L478.4,111.2z"/>
			<path class="st2" d="M572.4,137.6h-14.3l-20.9-46.4v46.4h-14.3V66.8h14.3l21,46.5V66.8h14.2V137.6L572.4,137.6z"/>
			<path class="st2" d="M620.8,107h-22.3v18.8h26.4v11.9h-40.7V66.8h40.6v11.9h-26.3v16.7h22.3V107z"/>
		</g>
	</g>
	<g>
		<path class="st3" d="M238.1,49.1v-2.8l2.7-0.3c0.6-0.1,0.7-0.2,0.7-0.9V21.7c0-0.6-0.1-0.8-0.7-0.9l-2.7-0.3v-2.8h12.8v2.8
			l-3.6,0.4c-0.7,0-0.7,0.2-0.7,0.8v23.8h9.7c0.5,0,0.6,0,0.7-0.5l0.7-4.1h3.7v8.3L238.1,49.1L238.1,49.1z"/>
		<path class="st3" d="M279.1,49.1l-0.4-2.6l-0.1,0c-1.9,1.8-4.3,3.1-7.7,3.1c-5.5,0-6.2-3.7-6.2-6.2c0-4.4,2.7-6.4,8-6.9l5.5-0.4
			v-2.2c0-2.7-0.5-4.2-3.8-4.2c-2.4,0-4,0.2-4,3.2l-4.7-0.4c0-5.6,5.1-6.3,8.8-6.3c6.3,0,8.7,1.8,8.7,7.8v11.2c0,0.7,0,0.8,0.7,0.9
			l2.1,0.3v2.8L279.1,49.1L279.1,49.1z M278.2,39.3l-4.1,0.4c-3.3,0.3-4.3,1.2-4.3,3.3s1,2.8,2.8,2.8c2.1,0,4.3-1.3,5.6-2.6V39.3z"
			/>
		<path class="st3" d="M302.1,49.1v-2.7l2.2-0.3c0.6-0.1,0.7-0.4,0.7-0.9V35.2c0-2.6-0.3-4.8-3.1-4.8c-2.2,0-4.5,1.2-6,2.3v12.5
			c0,0.7,0,0.8,0.7,0.9l2.3,0.3v2.8h-10.8v-2.8l2.1-0.3c0.6-0.1,0.7-0.2,0.7-0.9v-14c0-0.5-0.1-0.8-0.6-0.9l-2.4-0.8l0.4-2.8h6.4
			l0.3,2.4l0.2,0c2.4-1.6,5-2.9,8.1-2.9c4.7,0,6.5,3,6.5,8v11c0,0.7,0,0.8,0.7,0.9l2.4,0.3v2.8L302.1,49.1L302.1,49.1z"/>
		<path class="st3" d="M333.5,30.1c0.9,1.1,1.7,2.5,1.7,4.5c0,5-4,7.8-9.1,7.8c-1.4,0-2.8-0.1-3.7-0.4l-2,3.3l5.3,0.3
			c7.7,0.4,11.4,0.8,11.4,6c0,4.6-4,7.3-11.6,7.3c-7.7,0-10.4-2-10.4-5.4c0-2.1,1.2-3.4,2.7-4.7c-1.4-0.6-2-1.6-2-2.7
			c0-0.9,0.3-1.6,1.1-2.5c0.7-0.8,1.6-1.9,2.4-2.7c-2-1.1-3.4-3.4-3.4-6.4c0-4.8,3.4-8.4,9.6-8.4c1.6,0,3.2,0.2,4.1,0.4h7.9v3.2
			L333.5,30.1z M321.3,49.7c-0.8,0.8-1.7,1.9-1.7,3c0,2,2.3,2.6,6.1,2.6c2.2,0,6.4-0.4,6.4-3.1c0-1.9-1.7-2-4.2-2.2L321.3,49.7z
			 M325.9,29.7c-2.9,0-5,1.5-5,4.7c0,2.5,1.3,4.4,4.9,4.4c3,0,5-1.7,5-4.4C330.7,31.4,328.9,29.7,325.9,29.7z"/>
		<path class="st3" d="M353.4,49.1l-0.4-2.6l-0.1,0c-1.9,1.8-4.3,3.1-7.7,3.1c-5.5,0-6.2-3.7-6.2-6.2c0-4.4,2.7-6.4,8-6.9l5.5-0.4
			v-2.2c0-2.7-0.5-4.2-3.8-4.2c-2.4,0-4,0.2-4,3.2l-4.7-0.4c0-5.6,5.1-6.3,8.8-6.3c6.3,0,8.7,1.8,8.7,7.8v11.2c0,0.7,0,0.8,0.7,0.9
			l2.1,0.3v2.8L353.4,49.1L353.4,49.1z M352.4,39.3l-4.1,0.4C345,40,344,40.9,344,43s1,2.8,2.8,2.8c2.1,0,4.3-1.3,5.6-2.6V39.3z"/>
		<path class="st3" d="M362.4,49.1v-2.8l2.1-0.3c0.6-0.1,0.7-0.2,0.7-0.9v-14c0-0.5-0.1-0.7-0.6-0.9l-2.4-0.8l0.4-2.8h6.5l0.5,3.2
			l0.1,0c1.4-1.9,3.5-3.6,6.4-3.6c1,0,2.6,0.2,3.4,0.4v7.1l-3.9-0.2l-0.5-2.7c0-0.4-0.1-0.5-0.5-0.5c-1.7,0-3.5,1.4-4.4,2.3v12.5
			c0,0.7,0.1,0.8,0.7,0.9l4.1,0.4v2.8H362.4z"/>
		<path class="st3" d="M395.6,49.1l-0.4-2.6l-0.1,0c-1.9,1.8-4.3,3.1-7.7,3.1c-5.5,0-6.2-3.7-6.2-6.2c0-4.4,2.7-6.4,8-6.9l5.5-0.4
			v-2.2c0-2.7-0.5-4.2-3.8-4.2c-2.4,0-4,0.2-4,3.2l-4.7-0.4c0-5.6,5.1-6.3,8.8-6.3c6.3,0,8.7,1.8,8.7,7.8v11.2c0,0.7,0,0.8,0.7,0.9
			l2.1,0.3v2.8L395.6,49.1L395.6,49.1z M394.7,39.3l-4.1,0.4c-3.3,0.3-4.3,1.2-4.3,3.3s1,2.8,2.8,2.8c2.1,0,4.3-1.3,5.6-2.6V39.3z"
			/>
		<path class="st1" d="M408.6,49.7c-2.1,0-3.2-1-3.2-3c0-2,1.1-3,3.2-3c2.1,0,3.2,1,3.2,3C411.7,48.6,410.6,49.7,408.6,49.7z"/>
	</g>
	<g>
		<g>
			<g>
				<g>
					<path class="st4" d="M241.1,172.2v-1.4l2.2-0.2c0.3,0,0.4-0.1,0.4-0.4v-4.1l-4.4-7.9c-0.1-0.2-0.3-0.3-0.5-0.4l-1-0.2l0.2-1.4
						h5.6v1.4l-1.7,0.2l3.2,6.1h0.1l3.2-6.1l-1.7-0.2l0.2-1.4h5v1.4l-0.9,0.2c-0.2,0.1-0.4,0.2-0.6,0.4l-4.1,7.8v4.1
						c0,0.4,0,0.4,0.4,0.5l2.3,0.2v1.4L241.1,172.2L241.1,172.2z"/>
					<path class="st4" d="M259.8,164.1c0-4.7,2.7-8.3,7.8-8.3s7.4,3.6,7.4,8c0,5.2-2.5,8.6-7.7,8.6C262,172.4,259.8,169,259.8,164.1
						z M272.3,164.1c0-4.1-1.8-6.1-4.8-6.1c-3,0-5.1,2-5.1,6.1c0,4.3,1.9,6.2,4.9,6.2C270.3,170.3,272.3,168.5,272.3,164.1z"/>
					<path class="st4" d="M296.1,158.1c0-0.3,0-0.4-0.4-0.4l-1.4-0.2v-1.4h5.9v1.4l-1.5,0.2c-0.3,0-0.4,0.1-0.4,0.4v8.5
						c0,4-2.2,5.8-6.1,5.8c-4.2,0-6-2-6-5.9v-8.5c0-0.3,0-0.4-0.4-0.4l-1.4-0.2v-1.4h6.2v1.4l-1.5,0.2c-0.3,0-0.4,0.1-0.4,0.4v8.1
						c0,2.8,1,4.1,3.5,4.1c2.5,0,3.6-1,3.6-4L296.1,158.1L296.1,158.1z"/>
					<path class="st4" d="M318,172.2v-1.4l1.5-0.2l-1.7-4.2c-0.3-0.7-0.6-1-1.4-1h-1.9v4.7c0,0.4,0,0.4,0.4,0.5l1.4,0.2v1.4h-6.1
						v-1.4l1.4-0.2c0.3,0,0.4-0.1,0.4-0.4v-12c0-0.3,0-0.4-0.4-0.4l-1.4-0.2v-1.4h7.1c4,0,5.1,2.2,5.1,4.4c0,2.3-1.2,3.6-3,4.3
						c0.7,0.3,0.9,0.9,1.3,1.9l1.3,3.4c0.2,0.3,0.3,0.4,0.7,0.4l1.3,0.2v1.4L318,172.2L318,172.2z M316.1,163.5
						c1.9,0,3.5-0.5,3.5-2.9c0-2-1.2-2.6-3.7-2.6h-1.5v5.5H316.1z"/>
					<path class="st4" d="M354.6,172.2v-1.4l1.8-0.2l-1-3h-5.9l-1,3l1.8,0.2v1.4h-5.5v-1.4l1-0.2c0.3-0.1,0.5-0.2,0.5-0.4l4.9-14
						h3.1l4.9,14c0.1,0.3,0.3,0.3,0.5,0.4l1,0.2v1.4L354.6,172.2L354.6,172.2z M352.5,158.6L352.5,158.6l-2.5,7h4.8L352.5,158.6z"/>
					<path class="st4" d="M382.1,171.2c-1.2,0.8-3.4,1.2-5.4,1.2c-5.5,0-7.7-3.4-7.7-8.4c0-4.7,2.7-8.2,8.1-8.2c1.9,0,3.8,0.5,5,1.2
						v3.9l-1.9-0.1l-0.4-2.1c0-0.2-0.1-0.3-0.3-0.4c-0.7-0.2-1.5-0.4-2.5-0.4c-3.2,0-5.3,2.1-5.3,6.2c0,4.2,2,6.4,5.1,6.4
						c0.9,0,2-0.1,2.8-0.4c0.2-0.1,0.3-0.1,0.4-0.4l0.4-2h1.8L382.1,171.2L382.1,171.2z"/>
					<path class="st4" d="M401.1,172.2v-1.4l1.8-0.2l-1-3h-5.9l-1,3l1.8,0.2v1.4h-5.5v-1.4l1-0.2c0.3-0.1,0.5-0.2,0.5-0.4l4.9-14
						h3.1l4.9,14c0.1,0.3,0.3,0.3,0.5,0.4l1,0.2v1.4L401.1,172.2L401.1,172.2z M398.9,158.6L398.9,158.6l-2.5,7h4.8L398.9,158.6z"/>
					<path class="st4" d="M416.2,172.2v-1.4l1.4-0.2c0.3,0,0.4-0.1,0.4-0.4v-12c0-0.3,0-0.4-0.4-0.4l-1.4-0.2v-1.4h6.9
						c5.6,0,8,3,8,7.8c0,4.9-2.6,8.3-8.3,8.3L416.2,172.2L416.2,172.2z M422.6,170.2c4.1,0,5.8-2.4,5.8-6.1c0-4.6-2-6.1-5.7-6.1
						h-2.1v12.2L422.6,170.2L422.6,170.2z"/>
					<path class="st4" d="M441,172.2v-1.4l1.4-0.2c0.3,0,0.4-0.1,0.4-0.4v-12c0-0.3,0-0.4-0.4-0.4l-1.4-0.2v-1.4h11.4v4l-1.9-0.1
						l-0.3-1.7c0-0.2-0.1-0.3-0.4-0.3h-4.5v5.1h5.6v1.9h-5.6v5.2h5c0.2,0,0.3,0,0.4-0.2l0.4-2h1.9v4.1L441,172.2L441,172.2z"/>
					<path class="st4" d="M475.4,172.2v-1.4l1.8-0.2c0.3,0,0.4-0.1,0.4-0.4v-10.1h-0.1l-3.9,8.6h-2.9l-3.9-8.7h0v10.2
						c0,0.4,0,0.4,0.4,0.5l1.9,0.2v1.4h-6.3v-1.4l1.4-0.2c0.3,0,0.4-0.1,0.4-0.4v-12c0-0.3,0-0.4-0.4-0.4l-1.4-0.2v-1.4h5l4.5,10.4
						h0.1l4.6-10.4h4.8v1.4l-1.5,0.2c-0.3,0-0.4,0.1-0.4,0.4v12c0,0.3,0.1,0.4,0.4,0.4l1.5,0.2v1.4L475.4,172.2L475.4,172.2z"/>
					<path class="st4" d="M491.9,172.2v-1.4l1.6-0.2c0.3,0,0.4-0.1,0.4-0.4v-12c0-0.3,0-0.4-0.4-0.4l-1.6-0.2v-1.4h6.6v1.4l-1.7,0.2
						c-0.3,0-0.4,0.1-0.4,0.4v12c0,0.4,0,0.4,0.4,0.5l1.7,0.2v1.4L491.9,172.2L491.9,172.2z"/>
					<path class="st4" d="M521.4,171.2c-1.2,0.8-3.4,1.2-5.4,1.2c-5.5,0-7.7-3.4-7.7-8.4c0-4.7,2.7-8.2,8.1-8.2
						c1.9,0,3.8,0.5,4.9,1.2v3.9l-1.9-0.1l-0.4-2.1c0-0.2-0.1-0.3-0.3-0.4c-0.7-0.2-1.6-0.4-2.5-0.4c-3.2,0-5.3,2.1-5.3,6.2
						c0,4.2,1.9,6.4,5.1,6.4c0.9,0,2-0.1,2.8-0.4c0.2-0.1,0.3-0.1,0.4-0.4l0.4-2h1.8L521.4,171.2L521.4,171.2z"/>
					<path class="st4" d="M544.1,172.2v-1.4l1.4-0.2c0.3,0,0.4-0.1,0.4-0.4v-12c0-0.3,0-0.4-0.4-0.4l-1.4-0.2v-1.4h7.1
						c4.1,0,5.3,2.2,5.3,4.7c0,3.8-2.3,5.3-6.1,5.3h-2.1v4c0,0.4,0,0.4,0.4,0.5l3.2,0.2v1.4L544.1,172.2L544.1,172.2z M550.2,164.3
						c1.9,0,3.7-0.4,3.7-3.3c0-2.3-1.3-2.9-3.5-2.9h-2v6.2H550.2z"/>
					<path class="st4" d="M573.2,172.2v-1.4l1.8-0.2l-1-3h-5.9l-1,3l1.8,0.2v1.4h-5.5v-1.4l0.9-0.2c0.3-0.1,0.5-0.2,0.6-0.4l4.9-14
						h3.1l4.9,14c0.1,0.3,0.3,0.3,0.5,0.4l1,0.2v1.4L573.2,172.2L573.2,172.2z M571.1,158.6L571.1,158.6l-2.5,7h4.8L571.1,158.6z"/>
					<path class="st4" d="M588.9,172.2v-1.4l2.3-0.2c0.3,0,0.4-0.1,0.4-0.5V158h-3c-0.2,0-0.3,0-0.4,0.2l-0.4,1.9H586v-4.1h13.7v4.1
						h-1.8l-0.4-1.9c0-0.2-0.1-0.2-0.4-0.2h-3v12.1c0,0.3,0,0.4,0.4,0.4l2.4,0.2v1.4L588.9,172.2L588.9,172.2z"/>
					<path class="st4" d="M618.8,172.2v-1.4l1.4-0.2c0.3,0,0.4-0.1,0.4-0.4v-5.3h-7v5.3c0,0.4,0,0.4,0.4,0.5l1.5,0.2v1.4h-6.2v-1.4
						l1.4-0.2c0.3,0,0.4-0.1,0.4-0.4v-12c0-0.3,0-0.4-0.4-0.4l-1.4-0.2v-1.4h6.2v1.4l-1.5,0.2c-0.3,0-0.4,0.1-0.4,0.4v4.8h7v-4.8
						c0-0.3,0-0.4-0.4-0.4l-1.4-0.2v-1.4h6.1v1.4l-1.4,0.2c-0.3,0-0.4,0.1-0.4,0.4v12c0,0.4,0,0.4,0.4,0.5l1.4,0.2v1.4L618.8,172.2
						L618.8,172.2z"/>
				</g>
			</g>
		</g>
	</g>
</g>
</svg>
