<svg width="60" height="60" viewBox="0 0 60 60" fill="none" xmlns="http://www.w3.org/2000/svg">
<g clip-path="url(#clip0_489_896)">
<path d="M29.9252 0.000152588C31.8891 0.00441679 33.848 0.196916 35.7752 0.575104C37.7017 0.954751 39.5859 1.52463 41.4002 2.27554C43.2111 3.03053 44.9443 3.95957 46.5752 5.0502C48.2108 6.13909 49.7349 7.38617 51.1252 8.77457C52.5162 10.1626 53.7641 11.6877 54.8502 13.3253C57.0333 16.6102 58.5612 20.2861 59.3502 24.1505C60.118 28.0127 60.118 31.9876 59.3502 35.8498C58.5612 39.7142 57.0333 43.3901 54.8502 46.675C53.7641 48.3126 52.5162 49.8365 51.1252 51.2245C49.7349 52.6129 48.2108 53.8612 46.5752 54.9501C44.95 56.0502 43.2158 56.9798 41.4002 57.7248C39.5859 58.4757 37.7017 59.0456 35.7752 59.4252C31.913 60.1931 27.9374 60.1931 24.0752 59.4252C22.1397 59.0491 20.2469 58.4791 18.4252 57.7248C16.6146 56.9691 14.8815 56.0401 13.2502 54.9501C9.96904 52.7694 7.15583 49.9561 4.97516 46.675C2.78671 43.3957 1.26612 39.7171 0.500219 35.8498C-0.267651 31.9876 -0.267651 28.0127 0.500219 24.1505C1.26612 20.2832 2.78671 16.6046 4.97516 13.3253C7.15583 10.0442 9.96904 7.23087 13.2502 5.0502C14.8871 3.96964 16.6193 3.04112 18.4252 2.27554C20.2469 1.52117 22.1397 0.951206 24.0752 0.575104C26.0022 0.195691 27.9612 0.0031803 29.9252 0.000152588Z" fill="#F9B959"/>
<path d="M27.0001 17.8504C26.9952 17.2906 27.1567 16.7411 27.4641 16.2732C27.7714 15.8054 28.2109 15.4399 28.7266 15.2222C29.2424 15.0045 29.8111 14.9451 30.3608 15.0513C30.9104 15.1575 31.4161 15.4238 31.8137 15.8179C32.2113 16.212 32.4829 16.7158 32.5939 17.2644C32.705 17.8131 32.6505 18.3825 32.4374 18.9002C32.2244 19.4178 31.8623 19.8606 31.3972 20.1721C30.9321 20.4837 30.3849 20.6494 29.8251 20.6494C29.4553 20.6527 29.0885 20.5836 28.7459 20.4444C28.4033 20.3051 28.0917 20.0992 27.829 19.8389C27.5664 19.5786 27.3579 19.2684 27.2156 18.927C27.0734 18.5857 27.0001 18.2202 27.0001 17.8504ZM27.6501 43.1751V28.1751C27.6501 27.512 27.9136 26.8763 28.3824 26.4075C28.8512 25.9387 29.4871 25.6751 30.1501 25.6751C30.8132 25.6751 31.4491 25.9387 31.9179 26.4075C32.3868 26.8763 32.6501 27.512 32.6501 28.1751V43.1751C32.6501 43.8381 32.3868 44.4738 31.9179 44.9427C31.4491 45.4115 30.8132 45.6751 30.1501 45.6751C29.4871 45.6751 28.8512 45.4115 28.3824 44.9427C27.9136 44.4738 27.6501 43.8381 27.6501 43.1751Z" fill="white"/>
</g>
<defs>
<clipPath id="clip0_489_896">
<rect width="60" height="60" fill="white"/>
</clipPath>
</defs>
</svg>
