<svg id="Layer_1" data-name="Layer 1" xmlns="http://www.w3.org/2000/svg" viewBox="0 0 12 18"><defs><style>.cls-1{fill:#f15a22;}</style></defs><path class="cls-1" d="M4.67,6.23A1.38,1.38,0,0,0,4.89,7a1.34,1.34,0,0,0,.6.51,1.27,1.27,0,0,0,.77.08,1.28,1.28,0,0,0,.68-.38,1.36,1.36,0,0,0,.37-.71,1.45,1.45,0,0,0-.08-.8,1.36,1.36,0,0,0-.49-.62A1.32,1.32,0,0,0,6,4.85a1.3,1.3,0,0,0-.94.4A1.41,1.41,0,0,0,4.67,6.23Zm-1.34,0a2.88,2.88,0,0,1,.45-1.54,2.76,2.76,0,0,1,1.2-1,2.54,2.54,0,0,1,1.54-.15,2.66,2.66,0,0,1,1.37.75,2.89,2.89,0,0,1,.73,1.42,2.82,2.82,0,0,1-.16,1.6,2.67,2.67,0,0,1-1,1.24A2.55,2.55,0,0,1,6,9a2.62,2.62,0,0,1-1.89-.81A2.82,2.82,0,0,1,3.33,6.23Zm-2,.08V7.1c0,3.77,1.46,6,4,8.6l.63.64.67-.64c2.57-2.61,4-4.84,4-8.6V6.31A5.12,5.12,0,0,0,9.33,2.85,4.69,4.69,0,0,0,7.82,1.79a4.38,4.38,0,0,0-3.57,0A4.69,4.69,0,0,0,2.74,2.85,5.08,5.08,0,0,0,1.33,6.31ZM5.54,17.8l-1.1-1.11C1.61,13.82,0,11.24,0,7.1V6.31A6.53,6.53,0,0,1,1.75,1.85,6,6,0,0,1,3.7.48a5.75,5.75,0,0,1,4.6,0,6,6,0,0,1,1.95,1.37A6.53,6.53,0,0,1,12,6.31V7.1c0,4.15-1.6,6.72-4.44,9.59L6.47,17.8A.67.67,0,0,1,6,18,.63.63,0,0,1,5.54,17.8Z"/></svg>