<svg id="Layer_1" data-name="Layer 1" xmlns="http://www.w3.org/2000/svg" viewBox="0 0 41.86 42.2"><defs><style>.cls-1{fill:#f15a22;}</style></defs><path class="cls-1" d="M27.66,39.35a5.72,5.72,0,0,1-9.9,0,2,2,0,0,1-.26-1,1.89,1.89,0,0,1,.26-1,1.81,1.81,0,0,1,.7-.7,1.88,1.88,0,0,1,.95-.25H26a1.89,1.89,0,0,1,.95.26,1.83,1.83,0,0,1,.69.69,2,2,0,0,1,0,1.92Zm14.15-6.69H3.71a1.89,1.89,0,0,1-1.89-1.9,1.91,1.91,0,0,1,.55-1.35,1.89,1.89,0,0,1,1.34-.56,3.78,3.78,0,0,0,2.66-1.12A3.84,3.84,0,0,0,7.47,25V15.48A15.56,15.56,0,0,1,12,4.54a15.12,15.12,0,0,1,21.6,0A15.59,15.59,0,0,1,38,15.48V25a3.88,3.88,0,0,0,1.1,2.7,3.79,3.79,0,0,0,2.67,1.12,1.8,1.8,0,0,1,1.33.55,1.9,1.9,0,0,1,.56,1.35,1.94,1.94,0,0,1-.54,1.35A1.87,1.87,0,0,1,41.81,32.66ZM34.16,25V15.48a11.68,11.68,0,0,0-3.35-8.2,11.35,11.35,0,0,0-16.2,0,11.64,11.64,0,0,0-3.35,8.2V25a7.75,7.75,0,0,1-1,3.82h25A7.56,7.56,0,0,1,34.16,25Z" transform="translate(-1.82)"/></svg>