<svg id="Layer_1" data-name="Layer 1" xmlns="http://www.w3.org/2000/svg" viewBox="0 0 153 153"><defs><style>.cls-1{fill:#636567;}.cls-2{fill:#efefef;}.cls-3{fill-opacity:0.5;}.cls-4{fill:#fff;}</style></defs><circle class="cls-1" cx="76.5" cy="76.5" r="76.5"/><path class="cls-2" d="M76.5,65.5A22.25,22.25,0,1,0,54.25,43.25,22.25,22.25,0,0,0,76.5,65.5Zm0,11.12C61.65,76.62,32,84.08,32,98.88v5.56A5.57,5.57,0,0,0,37.56,110h77.88a5.57,5.57,0,0,0,5.56-5.56V98.88C121,84.08,91.35,76.62,76.5,76.62Z"/><path class="cls-3" d="M141,118H12c5.31,10.08,26.5,35,64,35S133.53,130.43,141,118Z"/><path class="cls-4" d="M45.59,138.12a3.1,3.1,0,0,0,2.84-1.64l-1.22-.59a1.81,1.81,0,0,1-1.62,1,2.2,2.2,0,0,1,0-4.38,1.83,1.83,0,0,1,1.62,1l1.22-.6a3.08,3.08,0,0,0-2.84-1.63,3.45,3.45,0,1,0,0,6.9Zm8.2-.12v-3.43a1.39,1.39,0,0,0-1.57-1.52,2.23,2.23,0,0,0-1.7.75v-2.47H49.25V138h1.27v-3.25a1.41,1.41,0,0,1,1.1-.57c.55,0,.9.21.9.88V138Zm5.43,0v-3.12c0-1.39-1-1.83-2.11-1.83a3.17,3.17,0,0,0-2.11.76l.48.85a2,2,0,0,1,1.41-.57c.64,0,1.06.32,1.06.81v.67a2,2,0,0,0-1.53-.59,1.53,1.53,0,0,0-1.68,1.54,1.61,1.61,0,0,0,1.68,1.6A2,2,0,0,0,58,137.5v.5ZM58,136.84a1.27,1.27,0,0,1-1,.42c-.5,0-.91-.26-.91-.71s.41-.73.91-.73a1.27,1.27,0,0,1,1,.42ZM65,138v-3.41a1.4,1.4,0,0,0-1.57-1.54,2.21,2.21,0,0,0-1.69.75v-.63H60.48V138h1.27v-3.25a1.38,1.38,0,0,1,1.1-.57.78.78,0,0,1,.89.9V138Zm1.16,1.24a2.91,2.91,0,0,0,2.08.72c1.19,0,2.61-.45,2.61-2.29v-4.5H69.58v.62a1.86,1.86,0,0,0-1.49-.74A2.16,2.16,0,0,0,66,135.51c0,1.61.92,2.46,2.13,2.46a1.88,1.88,0,0,0,1.49-.76v.49a1.18,1.18,0,0,1-1.33,1.22,1.92,1.92,0,0,1-1.51-.6Zm3.41-3a1.41,1.41,0,0,1-1.09.55,1.33,1.33,0,0,1,0-2.66,1.38,1.38,0,0,1,1.09.55Zm2.23-.71a2.45,2.45,0,0,0,2.58,2.54,3,3,0,0,0,2-.67l-.56-.82a2,2,0,0,1-1.29.48A1.3,1.3,0,0,1,73.14,136h3.59v-.28a2.42,2.42,0,0,0-2.42-2.66A2.46,2.46,0,0,0,71.81,135.58Zm2.5-1.52a1.12,1.12,0,0,1,1.19,1.07H73.12A1.16,1.16,0,0,1,74.31,134.06Zm7.17,3.32a1.85,1.85,0,0,0,1.49.74c1.24,0,2.14-.93,2.14-2.54s-.9-2.53-2.14-2.53a1.87,1.87,0,0,0-1.49.73v-.61H80.21v6.67h1.27Zm2.31-1.8A1.26,1.26,0,0,1,82.57,137a1.45,1.45,0,0,1-1.09-.55v-1.71a1.42,1.42,0,0,1,1.09-.55A1.25,1.25,0,0,1,83.79,135.58Zm2.9-3.12a.76.76,0,1,0-.76-.76A.76.76,0,0,0,86.69,132.46Zm.64,5.54v-4.83H86.06V138Zm1-2.42a2.45,2.45,0,0,0,2.56,2.54,2.23,2.23,0,0,0,1.91-.88l-.83-.77a1.22,1.22,0,0,1-1,.52,1.41,1.41,0,0,1,0-2.81,1.19,1.19,0,0,1,1,.52l.83-.77a2.23,2.23,0,0,0-1.91-.88A2.45,2.45,0,0,0,88.28,135.58Zm6.92,2.54a1.57,1.57,0,0,0,1.06-.31l-.27-1a.69.69,0,0,1-.44.14c-.28,0-.44-.23-.44-.53v-2.18h1v-1.11h-1v-1.32H93.83v1.32H93v1.11h.8v2.52A1.21,1.21,0,0,0,95.2,138.12Zm6.28-.12v-4.83h-1.27v3.27a1.42,1.42,0,0,1-1.1.55.78.78,0,0,1-.89-.89v-2.93H97v3.43a1.38,1.38,0,0,0,1.56,1.52,2.26,2.26,0,0,0,1.7-.73V138Zm2.53,0v-3.19a1.63,1.63,0,0,1,1.2-.54,1.75,1.75,0,0,1,.35,0v-1.24a2.1,2.1,0,0,0-1.55.77v-.66h-1.26V138Zm2-2.42a2.45,2.45,0,0,0,2.58,2.54,3,3,0,0,0,2-.67l-.56-.82a2,2,0,0,1-1.29.48,1.3,1.3,0,0,1-1.39-1.12H111v-.28a2.42,2.42,0,0,0-2.42-2.66A2.46,2.46,0,0,0,106,135.58Zm2.5-1.52a1.12,1.12,0,0,1,1.19,1.07h-2.38A1.16,1.16,0,0,1,108.54,134.06Z"/></svg>