<svg width="257" height="260" viewBox="0 0 257 260" fill="none" xmlns="http://www.w3.org/2000/svg">
<g clip-path="url(#clip0)">
<path d="M1.20502 174.194V172.435L2.97317 172.232C3.36734 172.175 3.42368 172.097 3.42368 171.679V156.724C3.42368 156.307 3.42365 156.205 2.97317 156.171L1.20502 155.98V154.186H9.51642V155.98L7.17389 156.205C6.75719 156.205 6.72345 156.341 6.72345 156.724V171.848H13.0302C13.3455 171.848 13.4244 171.848 13.4807 171.544L13.9311 168.916H16.3075V174.194H1.20502Z" fill="white"/>
<path d="M27.7384 174.194L27.4569 172.57H27.378C26.7266 173.217 25.9527 173.727 25.1017 174.069C24.2507 174.412 23.3399 174.581 22.4228 174.566C18.864 174.566 18.3909 172.187 18.3909 170.642C18.3909 167.878 20.1366 166.547 23.5715 166.266L27.1528 165.995V164.585C27.1528 162.837 26.8375 161.901 24.6752 161.901C23.121 161.901 22.0849 162.014 22.0849 163.92L19.0329 163.649C19.0329 160.108 22.3327 159.668 24.7315 159.668C28.8083 159.668 30.3625 160.796 30.3625 164.608V171.713C30.3625 172.164 30.3625 172.209 30.8242 172.266L32.1982 172.469V174.228L27.7384 174.194ZM27.1528 167.98L24.4725 168.205C22.3665 168.397 21.7132 168.972 21.7132 170.303C21.7132 171.634 22.4115 172.074 23.5377 172.074C24.9119 171.985 26.206 171.396 27.1753 170.416L27.1528 167.98Z" fill="white"/>
<path d="M42.6831 174.194V172.457L44.0909 172.288C44.4851 172.288 44.5414 172.074 44.5414 171.736V165.307C44.5414 163.638 44.3499 162.262 42.548 162.262C41.1499 162.359 39.809 162.856 38.6851 163.694V171.657C38.6851 172.108 38.6851 172.153 39.1356 172.209L40.6334 172.412V174.172H33.6735V172.378L35.025 172.209C35.4191 172.153 35.4754 172.074 35.4754 171.657V162.758C35.4754 162.453 35.3966 162.262 35.1151 162.183L33.5609 161.653L33.8425 159.882H38.0206L38.2459 161.405H38.3585C39.8849 160.275 41.7206 159.641 43.6179 159.589C46.6699 159.589 47.8186 161.461 47.8186 164.642V171.634C47.8186 172.085 47.8187 172.13 48.2692 172.187L49.8233 172.39V174.149L42.6831 174.194Z" fill="white"/>
<path d="M62.9549 162.093C63.662 162.872 64.0622 163.882 64.0811 164.935C64.0811 168.149 61.4908 169.908 58.1911 169.908C57.3952 169.931 56.5999 169.847 55.826 169.66L54.5309 171.769L57.9996 171.927C63.0112 172.175 65.41 172.435 65.41 175.773C65.41 178.706 62.8198 180.42 57.9095 180.42C52.9993 180.42 51.1523 179.123 51.1523 177.037C51.1979 176.438 51.3761 175.857 51.6742 175.336C51.9723 174.815 52.3826 174.367 52.8753 174.025C52.508 173.91 52.1858 173.683 51.9536 173.376C51.7214 173.068 51.5909 172.696 51.5802 172.311C51.6005 171.715 51.8556 171.151 52.2898 170.743C52.7402 170.236 53.3259 169.548 53.8327 169.029C53.1276 168.619 52.5494 168.021 52.1619 167.303C51.7744 166.584 51.5926 165.773 51.6365 164.957C51.6365 161.89 53.8326 159.657 57.8644 159.657C58.7543 159.64 59.6429 159.731 60.511 159.927H65.6353V161.923L62.9549 162.093ZM55.0715 174.589C54.4925 175.08 54.1121 175.766 54.0015 176.518C54.0015 177.792 55.4881 178.209 57.9433 178.209C59.3735 178.209 62.1102 177.984 62.1102 176.213C62.1102 175.006 61.0403 174.95 59.4073 174.837L55.0715 174.589ZM57.9996 161.867C56.1075 161.867 54.7336 162.803 54.7336 164.878C54.7336 166.457 55.6008 167.642 57.9095 167.642C59.8578 167.642 61.153 166.514 61.153 164.822C61.1725 164.416 61.1031 164.012 60.95 163.636C60.7969 163.26 60.5636 162.922 60.2664 162.646C59.9692 162.37 59.6154 162.162 59.2297 162.037C58.844 161.913 58.4357 161.874 58.0334 161.923L57.9996 161.867Z" fill="white"/>
<path d="M75.8387 174.194L75.5571 172.57H75.467C74.8156 173.217 74.0417 173.727 73.1907 174.069C72.3397 174.412 71.4289 174.581 70.5118 174.566C66.9642 174.566 66.4799 172.187 66.4799 170.642C66.4799 167.878 68.2255 166.547 71.6717 166.266L75.2418 165.995V164.585C75.2418 162.837 74.9377 161.901 72.7642 161.901C71.2213 161.901 70.1738 162.014 70.1738 163.92L67.1331 163.649C67.1331 160.108 70.4329 159.668 72.7642 159.668C76.8523 159.668 78.3952 160.796 78.3952 164.608V171.713C78.3952 172.164 78.3951 172.209 78.8456 172.266L80.2309 172.469V174.228L75.8387 174.194ZM75.2418 167.98L72.5727 168.205C70.4554 168.397 69.8135 168.972 69.8135 170.303C69.8135 171.634 70.4554 172.074 71.6154 172.074C72.9856 171.983 74.2753 171.393 75.2418 170.416V167.98Z" fill="white"/>
<path d="M81.7287 174.194V172.401L83.0801 172.232C83.4743 172.175 83.5307 172.097 83.5307 171.679V162.781C83.5491 162.656 83.5215 162.529 83.4531 162.423C83.3847 162.317 83.2801 162.24 83.159 162.205L81.6161 161.675L81.8976 159.905H86.0984L86.4025 161.923H86.4926C86.9592 161.252 87.5757 160.698 88.2931 160.307C89.0105 159.915 89.8092 159.696 90.6257 159.668C91.3646 159.669 92.1011 159.753 92.8218 159.916V164.427L90.2879 164.314L89.95 162.6C89.95 162.352 89.8711 162.296 89.6121 162.296C88.5355 162.45 87.5389 162.953 86.7741 163.728V171.623C86.7741 172.063 86.8304 172.142 87.2471 172.175L89.8937 172.401V174.16L81.7287 174.194Z" fill="white"/>
<path d="M103.194 174.194L102.913 172.57H102.834C102.181 173.218 101.405 173.729 100.552 174.072C99.6992 174.414 98.7863 174.583 97.8672 174.566C94.3197 174.566 93.8467 172.187 93.8467 170.642C93.8467 167.878 95.5923 166.548 99.0273 166.266L102.609 165.995V164.585C102.609 162.837 102.293 161.901 100.12 161.901C98.5767 161.901 97.5294 162.014 97.5294 163.92L94.4886 163.649C94.4886 160.108 97.7884 159.668 100.187 159.668C104.264 159.668 105.818 160.796 105.818 164.608V171.713C105.818 172.164 105.818 172.209 106.269 172.266L107.654 172.469V174.228L103.194 174.194ZM102.609 167.98L99.9282 168.205C97.8109 168.397 97.169 168.972 97.169 170.303C97.169 171.634 97.8672 172.074 98.9934 172.074C100.368 171.985 101.662 171.396 102.631 170.416L102.609 167.98Z" fill="white"/>
<path d="M112.722 174.533C111.337 174.533 110.638 173.89 110.638 172.627C110.638 171.363 111.337 170.721 112.722 170.721C114.107 170.721 114.772 171.375 114.772 172.627C114.772 173.878 114.073 174.533 112.722 174.533Z" fill="white"/>
<path d="M25.1482 215.575H10.3836V227.981H27.8624V235.876H0.901001V188.867H27.7948V196.762H10.3836V207.871H25.1482V215.575Z" fill="white"/>
<path d="M36.7368 235.921V188.913H49.125C54.6134 188.913 58.9831 190.653 62.2341 194.134C65.4888 197.631 67.1556 202.401 67.2231 208.48V216.06C67.2231 222.24 65.5939 227.09 62.3354 230.609C59.077 234.127 54.5721 235.887 48.821 235.887L36.7368 235.921ZM46.2195 196.819V228.037H49.0574C52.2108 228.037 54.4408 227.214 55.7359 225.545C57.031 223.875 57.6955 221.033 57.7631 216.905V208.729C57.7631 204.341 57.1436 201.285 55.9273 199.548C54.711 197.811 52.6163 196.909 49.6656 196.819H46.2195Z" fill="white"/>
<path d="M104.838 188.913V221.451C104.793 226.345 103.449 230.105 100.807 232.729C98.1638 235.353 94.3722 236.65 89.4319 236.62C84.394 236.62 80.5499 235.308 77.8996 232.684C75.2493 230.06 73.9241 226.259 73.9241 221.281V188.969H83.4631V221.315C83.4631 223.992 83.8947 225.898 84.7582 227.033C85.6141 228.161 87.1683 228.748 89.4319 228.748C91.6956 228.748 93.2385 228.184 94.0719 227.045C95.0535 225.364 95.505 223.426 95.3671 221.484V188.969L104.838 188.913Z" fill="white"/>
<path d="M124.029 228.037H140.663V235.932H114.546V188.924H124.029V228.037Z" fill="white"/>
<path d="M170.755 226.3H157.826L155.304 235.921H145.28L159.921 188.913H168.604L183.369 235.921H173.233L170.755 226.3ZM159.887 218.405H168.649L164.313 201.634L159.887 218.405Z" fill="white"/>
<path d="M222.178 235.921H212.74L198.865 205.086V235.921H189.394V188.913H198.865L212.74 219.781V188.913H222.189L222.178 235.921Z" fill="white"/>
<path d="M254.297 215.575H239.533V227.981H257.011V235.876H230.05V188.867H256.944V196.762H239.533V207.871H254.297V215.575Z" fill="white"/>
<path d="M2.27496 259.82V258.917L3.69399 258.816C3.8967 258.816 3.93051 258.737 3.93051 258.523V255.804L1.01361 250.594C0.983276 250.525 0.934799 250.465 0.873318 250.421C0.811836 250.378 0.739655 250.352 0.664491 250.346L0 250.177L0.146412 249.241H3.85167V250.177L2.72547 250.312L4.80892 254.316H4.87649L6.97121 250.312L5.84501 250.177L5.99142 249.241H9.30247V250.177L8.68307 250.346C8.60456 250.355 8.52994 250.385 8.46668 250.433C8.40342 250.48 8.35373 250.544 8.32267 250.616L5.59728 255.782V258.511C5.59728 258.737 5.5973 258.771 5.8338 258.805L7.33161 258.917V259.853L2.27496 259.82Z" fill="white"/>
<path d="M14.5281 254.485C14.5281 251.372 16.285 249.015 19.6748 249.015C23.0647 249.015 24.5513 251.372 24.5513 254.327C24.5513 257.711 22.8845 259.966 19.4721 259.966C16.0597 259.966 14.5281 257.71 14.5281 254.485ZM22.7945 254.485C22.7945 251.778 21.6006 250.459 19.6636 250.459C17.7265 250.459 16.285 251.801 16.285 254.496C16.285 257.192 17.5576 258.601 19.5172 258.601C21.4768 258.601 22.8395 257.361 22.8395 254.462L22.7945 254.485Z" fill="white"/>
<path d="M38.5613 250.537C38.5613 250.323 38.5613 250.267 38.336 250.244L37.4125 250.143V249.207H41.3204V250.143L40.3407 250.267C40.1154 250.267 40.1042 250.323 40.1042 250.537V256.177C40.1042 258.816 38.6289 260 36.0949 260C33.2907 260 32.1532 258.703 32.1532 256.132V250.492C32.1532 250.278 32.1532 250.222 31.9167 250.199L30.9932 250.098V249.161H35.0813V250.098L34.1015 250.222C33.8763 250.222 33.865 250.278 33.865 250.492V255.838C33.865 257.699 34.5069 258.534 36.185 258.534C37.863 258.534 38.5613 257.846 38.5613 255.872V250.537Z" fill="white"/>
<path d="M52.9542 259.82V258.917L53.9227 258.793L52.7965 256.019C52.7461 255.821 52.626 255.648 52.4583 255.532C52.2907 255.416 52.0868 255.364 51.8842 255.387H50.6342V258.5C50.6342 258.726 50.6342 258.759 50.8707 258.793L51.8054 258.906V259.842H47.7849V258.917L48.7083 258.816C48.9111 258.816 48.9449 258.737 48.9449 258.523V250.628C48.9449 250.402 48.9448 250.346 48.7083 250.334L47.7849 250.233V249.274H52.4699C55.1052 249.274 55.8485 250.707 55.8485 252.173C55.8815 252.797 55.7055 253.414 55.3485 253.927C54.9915 254.44 54.4739 254.819 53.8777 255.004C54.3281 255.229 54.4745 255.579 54.7561 256.278L55.6345 258.534C55.7471 258.759 55.8485 258.782 56.0738 258.816L56.9634 258.962V259.898L52.9542 259.82ZM51.7604 254.18C52.9992 254.18 54.0691 253.842 54.0691 252.24C54.0691 250.887 53.2469 250.537 51.659 250.537H50.668V254.18H51.7604Z" fill="white"/>
<path d="M77.1 259.82V258.917L78.305 258.782L77.6293 256.808H73.7214L73.0457 258.782L74.1719 258.917V259.853H70.5117V258.917L71.1424 258.759C71.3113 258.759 71.4465 258.658 71.5028 258.477L74.7237 249.229H76.7959L80.0281 258.511C80.0281 258.692 80.2083 258.714 80.3772 258.759L81.053 258.917V259.842L77.1 259.82ZM75.7035 250.797L74.1268 255.455H77.2914L75.7035 250.797Z" fill="white"/>
<path d="M95.2207 259.211C94.1175 259.775 92.8884 260.046 91.6506 260C88.0467 260 86.5826 257.744 86.5826 254.462C86.5826 251.338 88.362 249.015 91.9321 249.015C93.0744 248.981 94.2041 249.262 95.1981 249.827V252.387L93.9481 252.297L93.7003 250.876C93.7012 250.817 93.6814 250.76 93.6443 250.715C93.6072 250.669 93.5552 250.638 93.4976 250.628C92.9661 250.457 92.4114 250.37 91.8533 250.368C89.736 250.368 88.3733 251.778 88.3733 254.462C88.3733 257.147 89.6572 258.669 91.752 258.669C92.3703 258.686 92.9872 258.599 93.5764 258.41C93.7228 258.41 93.7791 258.331 93.8017 258.139L94.0381 256.786H95.1643L95.2207 259.211Z" fill="white"/>
<path d="M107.755 259.82V258.917L108.96 258.782L108.285 256.808H104.377L103.701 258.782L104.827 258.917V259.853H101.246V258.917L101.877 258.759C102.057 258.759 102.181 258.658 102.237 258.477L105.458 249.229H107.53L110.762 258.511C110.819 258.692 110.942 258.714 111.111 258.759L111.787 258.917V259.842L107.755 259.82ZM106.37 250.797L104.805 255.455H107.958L106.37 250.797Z" fill="white"/>
<path d="M117.767 259.82V258.917L118.691 258.816C118.893 258.816 118.927 258.737 118.927 258.523V250.628C118.927 250.402 118.927 250.346 118.691 250.334L117.767 250.233V249.274H122.272C125.943 249.274 127.531 251.259 127.531 254.417C127.531 257.575 125.82 259.887 122.024 259.887L117.767 259.82ZM121.945 258.545C124.648 258.545 125.797 256.989 125.797 254.519C125.797 251.485 124.502 250.481 122.036 250.481H120.639V258.545H121.945Z" fill="white"/>
<path d="M134.086 259.82V258.917L134.998 258.816C135.212 258.816 135.235 258.737 135.235 258.523V250.628C135.235 250.402 135.235 250.346 134.998 250.334L134.086 250.233V249.274H141.609V251.913H140.359L140.156 250.786C140.156 250.639 140.066 250.594 139.908 250.594H136.947V253.977H140.663V255.252H136.947V258.714H140.235C140.393 258.714 140.438 258.714 140.46 258.545L140.697 257.259H141.924V259.955L134.086 259.82Z" fill="white"/>
<path d="M156.79 259.82V258.917L158.007 258.816C158.209 258.816 158.243 258.737 158.243 258.523V251.846L155.687 257.485H153.783L151.227 251.756V258.523C151.227 258.748 151.227 258.793 151.463 258.816L152.725 258.929V259.865H148.546V258.917L149.47 258.816C149.673 258.816 149.706 258.737 149.706 258.523V250.628C149.706 250.402 149.706 250.346 149.47 250.334L148.546 250.233V249.274H151.846L154.842 256.132L157.894 249.274H161.036V250.21L160.056 250.334C159.842 250.334 159.82 250.391 159.82 250.605V258.5C159.82 258.692 159.82 258.759 160.056 258.782L161.036 258.895V259.831L156.79 259.82Z" fill="white"/>
<path d="M167.692 259.82V258.917L168.762 258.816C168.965 258.816 168.987 258.737 168.987 258.523V250.628C168.987 250.413 168.987 250.357 168.762 250.334L167.692 250.233V249.297H172.062V250.233L170.935 250.357C170.721 250.357 170.71 250.413 170.71 250.628V258.523C170.71 258.748 170.71 258.782 170.935 258.816L172.062 258.929V259.865L167.692 259.82Z" fill="white"/>
<path d="M187.142 259.21C186.037 259.772 184.809 260.043 183.571 260C179.968 260 178.503 257.744 178.503 254.462C178.503 251.338 180.272 249.015 183.842 249.015C184.984 248.98 186.114 249.261 187.108 249.827V252.387L185.869 252.297L185.621 250.876C185.617 250.817 185.595 250.76 185.556 250.716C185.517 250.671 185.465 250.64 185.407 250.628C184.879 250.458 184.329 250.37 183.774 250.368C181.646 250.368 180.283 251.778 180.283 254.462C180.283 257.147 181.578 258.669 183.662 258.669C184.276 258.685 184.889 258.598 185.475 258.41C185.621 258.41 185.677 258.331 185.711 258.139L185.936 256.786H187.13L187.142 259.21Z" fill="white"/>
<path d="M202.097 259.82V258.917L203.021 258.816C203.224 258.816 203.257 258.737 203.257 258.523V250.628C203.257 250.402 203.257 250.346 203.021 250.334L202.097 250.233V249.274H206.805C209.508 249.274 210.33 250.707 210.33 252.398C210.33 254.936 208.787 255.917 206.321 255.917H204.958V258.545C204.958 258.771 204.958 258.805 205.195 258.838L207.289 258.951V259.887L202.097 259.82ZM206.118 254.586C207.391 254.586 208.562 254.304 208.562 252.421C208.562 250.921 207.706 250.481 206.309 250.481H204.992V254.586H206.118Z" fill="white"/>
<path d="M221.322 259.82V258.917L222.527 258.782L221.851 256.808H217.943L217.267 258.782L218.394 258.917V259.853H214.734V258.917L215.364 258.759C215.544 258.759 215.668 258.658 215.725 258.477L218.957 249.229H221.018L224.25 258.511C224.25 258.692 224.43 258.714 224.599 258.759L225.275 258.917V259.842L221.322 259.82ZM219.937 250.797L218.371 255.534H221.536L219.937 250.797Z" fill="white"/>
<path d="M231.649 259.82V258.917L233.158 258.816C233.361 258.816 233.383 258.737 233.383 258.523V250.515H231.424C231.266 250.515 231.221 250.515 231.187 250.673L230.962 251.947H229.723V249.252H238.733V251.947H237.517L237.28 250.673C237.28 250.526 237.201 250.515 237.044 250.515H235.073V258.523C235.073 258.726 235.073 258.782 235.298 258.793L236.909 258.917V259.865L231.649 259.82Z" fill="white"/>
<path d="M251.392 259.82V258.917L252.315 258.816C252.529 258.816 252.551 258.737 252.551 258.523V255.038H247.923V258.511C247.923 258.737 247.923 258.771 248.159 258.805L249.139 258.917V259.853H245.051V258.917L245.974 258.816C246.188 258.816 246.211 258.737 246.211 258.523V250.628C246.211 250.413 246.211 250.357 245.974 250.334L245.051 250.233V249.297H249.139V250.233L248.159 250.357C247.945 250.357 247.923 250.413 247.923 250.628V253.797H252.551V250.628C252.551 250.413 252.552 250.357 252.315 250.334L251.392 250.233V249.297H255.423V250.233L254.5 250.357C254.286 250.357 254.263 250.413 254.263 250.628V258.523C254.263 258.748 254.263 258.782 254.5 258.816L255.423 258.929V259.865L251.392 259.82Z" fill="white"/>
<path d="M220.387 70.7717C220.415 71.1015 220.33 71.4309 220.146 71.7057C219.961 71.9805 219.689 72.1841 219.374 72.283L191.725 79.5913L170.034 68.0875C169.811 67.9812 169.557 67.9592 169.32 68.0255C169.082 68.0918 168.876 68.2419 168.739 68.4483C168.608 68.687 168.574 68.9678 168.645 69.231C168.717 69.4942 168.888 69.7191 169.122 69.8581L187.783 80.3019L172.816 84.1027C170.52 84.678 168.118 84.678 165.822 84.1027L119.265 72.283C118.966 72.1617 118.709 71.9536 118.528 71.6853C118.348 71.4171 118.251 71.1009 118.251 70.7774C118.251 70.4538 118.348 70.1375 118.528 69.8692C118.709 69.601 118.966 69.3929 119.265 69.2716L165.822 57.5084C168.117 56.9221 170.522 56.9221 172.816 57.5084L219.374 69.2716C219.687 69.3701 219.958 69.572 220.142 69.8445C220.326 70.1169 220.412 70.4438 220.387 70.7717ZM190.464 84.7343V92.8773C192.147 96.1702 193.154 99.7673 193.426 103.456C192.212 104.187 190.822 104.573 189.405 104.573C187.989 104.573 186.599 104.187 185.385 103.456C185.657 99.7673 186.664 96.1702 188.347 92.8773V85.2305L173.323 89.0652C170.702 89.7269 167.959 89.7269 165.338 89.0652L137.577 82.0501V104.844C137.577 110.359 151.216 118.851 169.336 118.851C187.457 118.851 201.084 110.359 201.084 104.844V82.0501L190.464 84.7343Z" fill="white"/>
<path d="M240.186 38.3126C230.72 24.1394 217.27 13.095 201.537 6.57585C185.804 0.0566743 168.495 -1.64457 151.796 1.68714C135.098 5.01884 119.761 13.2339 107.724 25.2938C95.6874 37.3536 87.4916 52.7168 84.1726 69.4409C81.1206 84.8697 81.1544 98.2232 86.2786 112.671C89.9359 112.14 93.6383 111.989 97.3267 112.22C105.439 112.733 113.322 115.123 120.358 119.201C110.74 106.276 107.519 91.7607 110.897 74.7529C113.352 62.2523 119.779 50.8823 129.218 42.3404C138.656 33.7986 150.601 28.5434 163.267 27.3594C175.934 26.1755 188.643 29.1265 199.497 35.7715C210.352 42.4166 218.768 52.3994 223.491 64.2292C228.213 76.059 228.988 89.1011 225.699 101.408C222.411 113.715 215.235 124.627 205.245 132.514C195.254 140.401 182.984 144.84 170.266 145.169C157.549 145.497 145.066 141.697 134.683 134.337C120.38 123.554 108.285 122.28 97.6532 123.814C69.0589 127.976 63.2139 150.104 63.2139 150.104C89.5671 130.536 114.715 153.623 114.715 153.623L114.794 153.555C130.846 166.426 150.967 173.121 171.519 172.426C192.071 171.732 211.696 163.695 226.845 149.77C241.994 135.844 251.667 116.949 254.114 96.5019C256.561 76.0549 251.62 55.4061 240.186 38.29V38.3126Z" fill="white"/>
</g>
<defs>
<clipPath id="clip0">
<rect width="257" height="260" fill="white"/>
</clipPath>
</defs>
</svg>
